<svg version="1.2" xmlns="http://www.w3.org/2000/svg" viewBox="0 0 456 79" width="456" height="79">
	<title>Group 2</title>
	<style>
		.s0 { fill: none;stroke: #000000;stroke-width: 9 } 
		.s1 { fill: #ffffff } 
		.s2 { fill: #000000 } 
	</style>
	<filter id="f0">
		<feFlood flood-color="#ffffff" flood-opacity="1" />
		<feBlend mode="normal" in2="SourceGraphic"/>
		<feComposite in2="SourceAlpha" operator="in" />
	</filter>
	<g id="Group 2" filter="url(#f0)">
		<g id="Group 1">
			<path id="Shape 1" class="s0" d="m174 79v-5h277v5h-277"/>
			<path id="Shape 1 copy" class="s0" d="m174 5v-5h277v5h-277"/>
			<path id="Shape 2" class="s0" d="m451.1 0h5v79h-5z"/>
		</g>
		<path id="ENABLEMENT" class="s1" aria-label="ENABLEMENT"  d="m200.8 53.7h-18.5v-28.7h18.5v4.8h-13.2v7h11.7v4.8h-11.7v7.3h13.2zm22.1 0l-8.4-14.7-2.9-6h-0.2v20.7h-5v-28.7h5.9l8.4 14.7 2.9 6h0.1v-20.7h5v28.7zm35.3 0h-5.5l-2.3-7.3h-9.9l-2.2 7.3h-5.4l9.4-28.7h6.6zm-9.1-11.9l-3.6-11.8h-0.2l-3.6 11.8zm13.2 11.9v-28.6h13q1.7 0 3.1 0.6 1.4 0.5 2.4 1.4 0.9 1 1.4 2.4 0.5 1.3 0.5 3 0 1.6-0.4 2.7-0.4 1.2-1.1 1.9-0.7 0.7-1.6 1.1-0.9 0.4-1.9 0.4v0.3q0.9 0 2 0.3 1.1 0.4 2 1.2 0.9 0.8 1.5 2.1 0.6 1.2 0.6 3 0 1.8-0.6 3.3-0.5 1.5-1.5 2.6-0.9 1.1-2.3 1.7-1.3 0.6-2.8 0.6zm5.3-12.2v7.6h7.3q1.6 0 2.4-0.7 0.9-0.9 0.9-2.4v-1.4q0-1.5-0.9-2.3-0.8-0.8-2.4-0.8zm0-11.8v7.4h6.6q1.4 0 2.2-0.8 0.9-0.8 0.9-2.3v-1.3q0-1.4-0.9-2.2-0.8-0.8-2.2-0.8zm37.7 24h-16.4v-28.6h5.3v23.8h11.1zm23 0h-18.4v-28.6h18.4v4.8h-13.1v7h11.6v4.7h-11.6v7.3h13.1zm26.8 0v-20.5h-0.1l-2.2 4.6-5.7 10.8-5.8-10.8-2.1-4.6h-0.2v20.5h-5v-28.6h6l7.2 14h0.1l7.1-14h5.8v28.6zm30.1 0h-18.5v-28.6h18.5v4.8h-13.2v7h11.6v4.8h-11.6v7.2h13.2zm22.1 0l-8.5-14.6-2.9-6h-0.1v20.6h-5v-28.6h5.8l8.5 14.7 2.8 6h0.2v-20.7h5v28.6zm31.4-23.8h-8v23.8h-5.3v-23.8h-7.9v-4.8h21.2z"/>
		<path id="Rectangle 1" class="s2" d="m0 0h170v79h-170z"/>
	</g>
	<path id="SKILLS" class="s2" aria-label="SKILLS"  d="m28.3 54.2c5.9 0 9.7-3 9.7-7.7 0-4-2.7-6.4-9.6-8.1-5.8-1.3-7.8-3-7.8-5.8 0-3.1 2.6-5.1 7-5.1 4.6 0 7.4 2.2 7.6 6.2h2.3c-0.2-5.4-3.9-8.6-9.9-8.6-5.8 0-9.4 3-9.4 7.5 0 4.2 2.9 6.5 9.6 8.1 5.5 1.2 7.8 3 7.8 5.9 0 3.2-2.8 5.3-7.3 5.3-4.8 0-7.9-2.4-8.2-6.6h-2.3c0.2 5.4 4.2 8.9 10.5 8.9zm-1.1 0c6 0 9.8-3 9.8-7.7 0-4-2.7-6.4-9.6-8.1-5.8-1.3-7.8-3-7.8-5.8 0-3.1 2.5-5.1 7-5.1 4.6 0 7.3 2.2 7.5 6.2h2.4c-0.2-5.4-3.9-8.6-9.9-8.6-5.9 0-9.4 3-9.4 7.5 0 4.2 2.8 6.5 9.6 8.1 5.5 1.2 7.7 3 7.7 5.9 0 3.2-2.8 5.3-7.3 5.3-4.7 0-7.9-2.4-8.1-6.6h-2.4c0.2 5.4 4.3 8.9 10.5 8.9zm19.1-0.5h2.4v-13.1h4.3c1.4 0 2.5-0.1 3.5-0.4l7.7 13.5h2.7l-8.2-14.4c1.8-1 2.9-2.6 3.8-4.9l3.3-8.7h-2.5l-2.9 7.8c-1.3 3.3-3.1 4.8-7.4 4.8h-4.3v-12.6h-2.4zm-1 0h2.3v-13.1h4.4c1.3 0 2.5-0.1 3.5-0.4l7.6 13.5h2.8l-8.2-14.4c1.7-1 2.9-2.6 3.7-4.9l3.3-8.7h-2.5l-2.9 7.8c-1.2 3.3-3 4.8-7.3 4.8h-4.4v-12.6h-2.3zm28.8 0h2.4v-28h-2.4zm-1 0h2.4v-28h-2.4zm13.3 0h16.3v-2.4h-13.9v-25.6h-2.4zm-1 0h16.3v-2.4h-13.9v-25.6h-2.4zm24.2 0h16.3v-2.4h-13.9v-25.6h-2.4zm-1.1 0h16.4v-2.4h-14v-25.6h-2.4zm31.8 0.5c6 0 9.8-3 9.8-7.7 0-4-2.7-6.4-9.6-8.1-5.8-1.3-7.8-3-7.8-5.8 0-3.1 2.5-5.1 7-5.1 4.6 0 7.3 2.2 7.5 6.2h2.4c-0.2-5.4-3.9-8.6-9.9-8.6-5.9 0-9.4 3-9.4 7.5 0 4.2 2.8 6.5 9.6 8.1 5.5 1.2 7.7 3 7.7 5.9 0 3.2-2.8 5.3-7.3 5.3-4.7 0-7.9-2.4-8.1-6.6h-2.4c0.2 5.4 4.3 8.9 10.5 8.9zm-1 0c6 0 9.7-3 9.7-7.7 0-4-2.6-6.4-9.6-8.1-5.7-1.3-7.8-3-7.8-5.8 0-3.1 2.6-5.1 7-5.1 4.6 0 7.4 2.2 7.6 6.2h2.4c-0.2-5.4-3.9-8.6-10-8.6-5.8 0-9.4 3-9.4 7.5 0 4.2 2.9 6.5 9.6 8.1 5.6 1.2 7.8 3 7.8 5.9 0 3.2-2.8 5.3-7.3 5.3-4.7 0-7.9-2.4-8.2-6.6h-2.3c0.2 5.4 4.2 8.9 10.5 8.9z"/>
</svg>