<svg xmlns="http://www.w3.org/2000/svg" version="1.1" id="Layer_1" x="0px" y="0px" style="enable-background:new 0 0 1000 1000;" viewBox="106.75 220.63 775.27 550.57"> <path d="M869.72,636.92c-0.18-0.2-0.38-0.38-0.56-0.58c-0.06-3.82-2.1-7.42-5.18-9.41c-0.09-0.24-0.24-0.48-0.5-0.66 c-12-8.52-26.97-15.06-42.65-18.56c0.33-33.3,0.41-66.61,0.48-99.91c0.07-32.44,1.83-65.89-8.15-97.21 c-14.6-45.79-58.59-81.7-106.28-87.01c-0.89-3.7-1.93-7.38-3.15-11.03c-2.56-8.97-5.85-17.66-10.02-25.89 c-13.93-27.47-40.59-46.37-70.16-53.59c-10.59-2.59-21.31-3.24-31.8-2.27c-20.09-10.55-44.94-12.26-66.31-5.39 c-0.82,0.27-1.62,0.59-2.44,0.89c-4.59-2.38-9.34-3.92-14.18-4.78c-0.2-0.37-0.58-0.64-1.04-0.67c-2.35-0.15-4.76-0.23-7.15-0.16 c-19.99-0.56-40.89,8.87-58.05,18.78c-15.34,1.7-31.4,11.34-35.32,26.53c-13.54,9.75-24.85,23.62-33.23,36.69 c-0.23-0.48-0.72-0.83-1.4-0.68c-27.9,6.05-53.59,21.38-74.29,40.72c-23.31,21.77-38.13,50.04-47.95,80.06 c-10.84,33.16-17.98,68.98-22.38,103.55c-3.95,31.06-1.05,64.14,18.07,89.9c-2.77,0.91-5.61,1.71-8.5,2.41 c-42.29,10.26-106.85-0.25-128.74,47.91c-0.65,0.91-1.34,1.78-1.94,2.74c-0.49,0.77,0.45,1.67,1.16,1.37 c0.69,0.57,1.89,0.65,2.31-0.31c0.7-1.6,1.45-3.12,2.24-4.6c2.2-2.26,4.47-4.37,6.82-6.29c0.27-0.14,0.55-0.25,0.82-0.39 c-0.01,0.75,0.86,1.34,1.6,0.71c1.38-1.17,2.76-2.26,4.15-3.32c22.42-9.35,47.02-9.78,71.32-11.84 c-10.87,1.75-21.52,3.87-31.56,7.17c-10.71,3.52-20.84,8.42-29.68,15.08c-7.33,4.45-13.61,10.39-17.87,17.73 c-0.36,0.61,0.5,1.31,1,0.77c0.63-0.69,1.27-1.34,1.91-2c0.35,0.22,0.8,0.25,1.1-0.12c1.67-2.09,3.42-4.05,5.23-5.9 c14.3-12.37,31.21-18.9,50.69-16.92c-0.86,0.41-1.7,0.85-2.55,1.28c-10.11,3.55-19.66,10.52-25,19.75 c-7.24,8.85-12.04,19.42-12.72,31.26c-0.98,3.06-1.74,6.18-2.2,9.34c-0.19,1.35,1.76,1.98,2.1,0.58c0.34-1.39,0.73-2.77,1.14-4.13 c0.84,0.2,1.85-0.24,1.82-1.36c-0.03-1.42,0.01-2.81,0.11-4.19c7.41-19.17,21.92-34.22,41.86-41.56c12.76-4.7,27.44-2.25,41.23-2.52 c-9.08,5.05-17.63,11.22-25.4,19c-3.15,3.16-5.98,6.61-8.52,10.25c-5.88,6.92-10.57,14.78-13.44,23.54 c-0.32,0.97,1.26,1.66,1.67,0.7c0.6-1.39,1.23-2.75,1.89-4.09c-0.52,1.72-0.99,3.45-1.38,5.21c-0.04,0.18-0.02,0.34,0.03,0.48 c-0.28,0.58-0.58,1.14-0.84,1.72c-0.36,0.79,0.74,1.48,1.18,0.69c1.44-2.53,2.95-4.91,4.5-7.23c-1.22,2.63-2.29,5.33-3.16,8.12 c-0.51,1.63,1.95,2.25,2.52,0.69c4.78-13.03,12.2-23.38,21.35-31.66c14.84-12.06,32.27-19.33,51.1-24.02 c-2.96,1.17-5.9,2.48-8.82,3.95c-13.77,6.96-25.34,17.72-32.66,31.31c-0.88,1.64,1.58,3.09,2.5,1.46 c26.07-46.01,84.76-43.77,130.33-40.28c6.89,0.53,13.8,1.02,20.71,1.35c-36.43,1.74-74.31,1.44-104.14,24.64 c-1.36,1.09-2.67,2.23-3.95,3.41c-1.22,1.09,0.55,2.79,1.78,1.78c0.7-0.58,1.42-1.12,2.13-1.67c14.21-5.54,27.28-10.27,42.11-12.67 c-18.06,7-35.38,20.86-40.59,39.87c-0.26,0.95,1.19,1.62,1.62,0.68c0.21-0.45,0.44-0.87,0.65-1.31 c9.88-11.41,20.31-20.69,34.66-26.11c7.66-2.89,15.86-3.96,23.99-4.07c7.82-0.11,14.86,2.19,22.32,3.56 c-14.78,8.93-26.89,21.35-33.48,39.24c-2.54,6.89-2.95,14.24-2.47,21.5c0.07,1.07,1.7,1.09,1.67,0c-0.05-2.58,0.11-5.12,0.4-7.62 c-0.05,1.7,0,3.4,0.16,5.12c0.13,1.43,2.32,1.47,2.26,0c-1.04-26.27,20.19-44.5,43.35-51.9c1.88-0.6,3.77-1.12,5.67-1.6 c0.08,0.16,0.22,0.3,0.44,0.39c11.52,4.66,25.51,7,38.84,6.53c-16.58,6.77-31.24,16.8-41.42,33.54c-2.58,4.24-4.23,8.99-5.57,13.74 c-0.29,1.04,0.63,1.66,1.45,1.53c-0.13,0.23-0.28,0.46-0.41,0.69c-0.2,0.36-0.15,0.69,0.02,0.94c-0.98,3.45-1.42,6.97-1.08,10.49 c0.04,0.47,0.67,0.58,0.82,0.11c1.73-5.18,3.11-10.11,5.06-14.89c9.75-12.86,20.7-23.84,34.22-32.61 c13.29-5.96,27.77-8.13,41.9-11.51c-6.11,3.55-11.97,7.52-17.52,11.82c-7.42,5.75-14.03,12.38-19.98,19.59 c-1.91,1.87-3.78,3.79-5.6,5.76c-0.45,0.49-0.34,1.07-0.01,1.46c-0.2,0.27-0.4,0.53-0.6,0.8c-0.51,0.71,0.68,1.63,1.22,0.94 c0.97-1.26,2-2.46,3.01-3.68c14.59-14.38,31.5-26.03,50.16-34.55c23.08-10.53,47.07-12.42,71.9-15.41 c37.52-4.52,67.72-28.78,82.03-63.68c16.23-39.59,8.79-82.41-8.05-120.5c-9.02-20.41-21.33-38.76-35.08-56.08 c3.38,3.42,6.63,6.85,9.66,10.33c29.98,34.48,44.95,81.4,43.16,126.77c-0.97,24.58-6.89,50.59-22.9,69.87 c-13.32,16.05-33.19,25.11-52.95,30.9c-11.65,2.54-23.33,4.94-34.89,7.84c-34.52,6.39-70.06,11.87-95.22,38.48 c-2.95,3.12-5.3,6.53-7.43,10.23c-0.4,0.69,0.62,1.54,1.14,0.88c22.53-29.12,54.75-37.88,88.19-44.45 c-4.46,1.34-8.87,2.85-13.21,4.64c-14.65,6.05-29.85,17.78-34.38,33.64c-1.17,1.7-2.23,3.45-3.16,5.24 c-0.28,0.55,0.46,1.21,0.9,0.69c0.49-0.57,0.97-1.12,1.46-1.68c0.24,0.42,0.91,0.48,1.12-0.11c0.26-0.74,0.57-1.44,0.85-2.16 c8.05-9.18,15.97-17.23,27-23.55c6.32-3.62,13.18-6.16,20.17-8.11c0.82-0.23,1.64-0.42,2.46-0.6c-0.03,0.03-0.07,0.05-0.1,0.08 c-5.59,3.15-10.54,7.18-14.2,12.43c-2.28,3.27-3.85,6.42-5.07,10.21c-0.32,0.99,1.25,1.67,1.69,0.71 c4.54-9.74,11.84-16.34,20.45-20.96c41.99-2.13,85.37-6.56,115.71-38.99c5.3-5.66,10.01-11.81,14.22-18.32 c4.94,0.87,9.91,1.59,14.87,2.36c5.04,0.78,10.23,2.09,15.35,1.99c-0.26,0.66-0.52,1.33-0.78,1.99c-0.86,2.15,2.63,3.1,3.48,0.96 c1.38-3.49,2.8-6.97,4.23-10.46c31.94,7.28,65.73,9.64,98.28,12.28c34.21,2.78,68.84,2.06,102.89,6.41c-0.6,0.76,0.4,1.88,1.29,1.39 c3.37-1.84,4.99-6.86,3.09-10.29c-0.45-0.82-1.16-1.63-1.98-2.33c0.25,0.07,0.5,0.15,0.76,0.2c2.76,0.57,5.26-1.01,6.18-3.35 c0.53,0.68,1.87,0.49,1.88-0.61c0.02-3.18-1.05-6.09-2.86-8.44c3.62,1.79,7.95,1.72,9.03-2.88 C883.42,644.59,876.21,639.2,869.72,636.92z M864.31,629.96c-0.01-0.01-0.01-0.03-0.02-0.04c0.94,1.11,1.66,2.4,2.08,3.81 c-1.05-0.86-2.14-1.61-3.27-2.3C863.85,631.63,864.84,630.91,864.31,629.96z M812.38,419.52c8.18,30.44,5.73,63.56,5.71,94.77 c-0.02,30.98,0.02,61.96,0.24,92.93c-1.64-0.33-3.28-0.67-4.94-0.93c-5.52-5.86-11.31-11.3-18.43-15.25 c-9.13-5.07-19.71-4.29-29.7-3.3c-25.59,2.53-51.76,3.96-77.04,8.72c-0.01,0-0.02,0.01-0.03,0.02c1.01-2.97,2-5.95,2.93-8.94 c0.27,0.09,0.54,0.18,0.81,0.27c1.46,0.51,2.36-0.8,2.23-2.01c0.09-0.32,0.18-0.63,0.27-0.95c0.73,0.42,1.84,0.28,2.17-0.77 c10.92-34.45,17.17-70.2,19.12-106.24c1.25-11.18,1.42-22.67,0.56-34.23c-0.24-10.98-0.9-22.04-2.16-33.04 c0.38-0.37,0.6-0.91,0.4-1.61c-0.35-1.26-0.72-2.53-1.08-3.81c-0.73-5.48-1.6-10.93-2.68-16.34c0.23-0.16,0.4-0.42,0.42-0.8 c0.01-0.19,0.01-0.39,0.02-0.58c0.14-0.18,0.25-0.4,0.26-0.7c0.07-2.28,0.13-4.55,0.18-6.81c0.77-0.19,1.42-0.84,1.15-1.82 c-0.35-1.26-0.71-2.52-1.06-3.78c0.12-16.52-0.77-32.6-4.25-48.25C757.41,334.35,799.13,370.2,812.38,419.52z M624.13,451.85 c-19.22-15.96-43.26-23.82-65.05-35.39c-16.46-8.74-33-21.99-40.67-38.94c18.75,30.98,62.71,44.46,91.57,63.56 c45.2,29.91,76.56,81.14,59.22,135.68c-0.17-0.05-0.35-0.1-0.52-0.15c0.23-0.17,0.42-0.41,0.49-0.8 C677.54,529.11,660.66,482.18,624.13,451.85z M666.54,576.03c-0.5-0.14-1.01-0.27-1.52-0.41c6.69-44.5-13.09-90.72-47.66-118.87 c-22.46-18.29-58.29-32-82.61-53.05c-0.71-0.73-1.44-1.44-2.13-2.2c19,16.56,46.6,27.42,66.53,37.85 c49.52,25.93,77.14,80.36,67.22,135.7C666.3,575.43,666.39,575.75,666.54,576.03z M612.2,456.5c-2.98-2.62-6.09-5.06-9.28-7.38 c20.71,13.8,37.29,31.39,48.37,54.07c10.93,22.39,14.24,47.33,11.88,71.91c-1.57-0.43-3.14-0.86-4.71-1.28 C662.96,529.83,645.36,485.73,612.2,456.5z M640.33,616.48c3.26-17.45,3.79-35.56,2.72-52.75c-1.21-19.53-5.37-39.2-13.98-56.83 c-9.08-18.58-24.92-32.56-41.28-44.65c-26.52-19.58-62.94-40.08-75.24-71.57c18.15,35,62.86,55.05,90.59,81.08 c20.89,19.61,34.78,45.83,40.89,73.68C649.41,569.99,647.37,593.52,640.33,616.48z M640.5,622.65c-1.85,5.87-3.99,11.65-6.48,17.29 c0.99-2.73,1.88-5.49,2.7-8.29C638.1,628.7,639.36,625.69,640.5,622.65z M572.02,459.06c0.52,0.7,1.05,1.4,1.57,2.1 c-1.59-1.54-3.2-3.08-4.83-4.6C569.85,457.38,570.93,458.22,572.02,459.06z M534.64,506.94c-6.73-23.36-14.06-46.54-21.43-69.72 c9,24.21,17.99,48.42,25,73.26c7.9,27.98,9.9,56.33,2.74,83.04C547.78,565.18,542.86,535.47,534.64,506.94z M526.99,491.21 c-11.18-30.55-24.54-61.34-28.67-92.22C508.1,429.66,517.6,460.43,526.99,491.21z M489.68,370.11c-0.42,0.08-0.8,0.37-0.82,0.91 c-0.04,1.19-0.02,2.36-0.03,3.55c-4.55,27.85,4.43,58.51,14.42,84.13c9.18,23.55,19.51,46.56,24.13,71.57 c4.6,24.85,0.27,49.49-12.48,71.22c-12.09,20.58-29.89,35.48-50.31,46.05c2.7-1.83,5.34-3.71,7.87-5.71 c33.16-26.27,51.57-65.93,51.04-108.18c-0.59-47-33.04-85.46-37.22-131.64c-1.42-15.71,1.24-30.96,6.36-45.54 c1.2-1.75,2.5-3.48,3.85-5.21C493.31,357.29,491.1,363.61,489.68,370.11z M494.56,365.64c-0.43,3.02-0.67,6.06-0.84,9.1 c-0.05-0.16-0.1-0.32-0.15-0.48c-0.15-0.51-0.49-0.81-0.88-0.95C493.21,370.73,493.79,368.18,494.56,365.64z M493.4,414.99 c2.86,12.73,6.77,25.27,11.06,37.7C499.92,440.34,495.85,427.68,493.4,414.99z M396,648.91c-3.69,1.2-7.41,2.29-11.11,3.25 c-0.64,0.09-1.27,0.17-1.91,0.26c3.68-1.06,7.27-2.34,10.78-3.78c0.82-0.28,1.64-0.55,2.46-0.84 C395.94,648.09,395.88,648.53,396,648.91z M382.89,649.94c-0.05,0.02-0.09,0.06-0.14,0.09c-6.48,1.95-13.13,3.4-19.85,4.3 c20.64-4.94,40.18-13.02,56.91-27.86c31.9-28.28,39.89-69.45,32.87-109.97c-8.15-47.04-32.46-101.61,4.86-142.62 c3.38-3.71,7.08-7.02,11-10.07c-13.2,17.53-21.54,38.35-24.7,60.24c-4.38,30.33,5.8,59.05,12.53,88.18 c7.73,33.41,4.34,65.8-14.45,94.97c-9.76,15.15-23.39,26.72-38.97,34.73C396.26,644.72,389.48,647.3,382.89,649.94z M439.99,543.55 c0.5,36.99-13.26,75.55-48.19,92.53c6.05-3.61,11.82-7.82,17.23-12.81c31.04-28.6,29.15-73.96,23.23-112.18 c-7.13-46.04-20.94-98.78,13.92-137.44c6.15-6.83,13.44-12.32,21.4-16.61c1.38-0.43,2.8-0.8,4.24-1.14 c-23.48,11.86-39.71,35.25-42.72,61.88C424.35,459.85,439.42,501.55,439.99,543.55z M192.85,635.78c-3.15,0.07-6.43,0.16-9.79,0.3 c13.17-1.83,26.58-2.99,39.58-4.83c12.81-1.81,25.54-4.75,37.33-9.83C240.63,634.22,217.16,635.26,192.85,635.78z M241.55,637.57 c-3.54,0.73-7.1,1.39-10.69,1.99c1.72-0.44,3.44-0.92,5.15-1.44C237.87,638,239.72,637.8,241.55,637.57z M299.64,591.29 c0.23,0.2,0.57,0.24,0.74-0.12c0.43-0.92,0.83-1.84,1.24-2.76c7.68-11.53,13.63-24.3,17.57-37.84 c12.39-42.56,7.25-88.02,17.92-130.95c11.04-44.43,44.62-79.26,89.47-89.73c12.27-2.86,24.94-3.47,37.45-2.19 c-29.04-2.09-57.82,6.59-81.46,24.75c-29.81,22.89-43.77,58.16-49.07,94.38c-5.62,38.42-4.9,77.79-17,115.05 c-9.96,30.67-30.51,55.73-58.95,67.17C274.48,619.84,288.7,606.8,299.64,591.29z M298.37,588.04c4.03-6.91,7.16-14.37,9.66-21.93 c-1.22,4.38-2.57,8.72-4.09,13.02C302.22,582.19,300.37,585.17,298.37,588.04z M490.17,322.43c-18.25-16.76-45.54-21.27-69.39-17.59 c-29.34,4.53-54.06,24.34-71.34,47.56c-19.62,26.35-28.56,58.55-33.37,90.63c0.74-9.66,1.91-19.31,3.83-28.96 c5.19-26.13,16.32-50.7,34.11-70.65C385.94,307.59,454.03,278.04,490.17,322.43z M363.19,330.17c14.5-15.05,31.83-26.92,51.56-32.93 c21.74-6.61,46.87-2.42,64.49,11.37c-13.89-9.65-32.24-12.79-49.1-10.92C405.32,300.44,381.69,313.57,363.19,330.17z M492.22,298.78 c1.15,3.38,1.85,6.87,2.15,10.43c-3.32-7.67-8.03-14.05-14.29-19.58c-12.98-11.48-31.49-14.49-48.17-12.6 c-10.69,1.21-20.72,4.72-30.11,9.75c17.55-10.72,38.09-17.42,58.63-13.06C473.85,276.57,486.08,286.37,492.22,298.78z M454.32,265.22c-7.41-1.64-14.88-1.9-22.17-0.98c4.63-0.97,9.42-1.55,14.4-1.65c12.65-0.26,25.07,3.14,34.03,12.4 c2.87,2.96,5.16,6.44,7.09,10.15C479.73,274.51,467.08,268.05,454.32,265.22z M491.21,287.29c0.05-0.52,0.09-1.05,0.14-1.57 c2.52,5.21,4.27,10.83,5.12,16.64c-0.04,0.37-0.06,0.75-0.09,1.13C494.95,298.1,493.38,292.54,491.21,287.29z M463.45,353.27 c3.25-2.07,6.59-4.02,10.04-5.78c0.91-0.34,1.84-0.64,2.76-0.95c0.09-0.01,0.17-0.03,0.26-0.05c0.07-0.01,0.09-0.07,0.14-0.09 c6.15-2.1,12.46-3.81,18.87-4.78c0.16-0.02,0.28-0.09,0.38-0.17c0.1,0,0.2,0,0.3,0c-0.05,0.09-0.11,0.18-0.16,0.28 C485.08,344.57,474.06,348.44,463.45,353.27z M491.35,351.38c-0.16,0.4-0.33,0.8-0.49,1.2c-0.62,0.79-1.19,1.62-1.77,2.43 c0.14-0.74,0.28-1.49,0.43-2.23C490.11,352.31,490.71,351.83,491.35,351.38z M481.97,376.93c-4.22,27.04-1.81,55.78,4.26,81.68 c4.22,18,11.33,35.21,16.05,53.08c4.89,18.47,5.71,37.29,2.24,56.07c-2.99,16.16-9.35,31.14-18.32,44.33 c5.28-10.01,8.84-21.17,10.42-33.19C505.23,513.05,458.66,439.05,481.97,376.93z M469.55,454.76 c1.55,35.22,12.16,69.37,12.86,104.62c0.13,6.4-0.21,12.74-1.03,18.96c0.72-18.72-6.36-37.43-10.26-55.46 c-4.54-20.97-6.72-42.39-7.14-63.83c-0.42-21.45,1.53-42.92,5.27-64.03c1.64-9.24,3.86-18.58,7.99-26.8 C470.85,396.6,468.27,425.62,469.55,454.76z M456.16,483.44c-0.78-2.79-1.52-5.59-2.22-8.39c-5.86-23.52-6.42-46.93,0.72-70.19 c3.47-11.3,8.78-21.94,15.51-31.61c-8.41,17.32-13.56,36.82-15.86,55.18C451.91,447.54,453.04,465.48,456.16,483.44z M509.65,536.32 c-1.11-19.31-7.91-37.85-13.95-56.04c-5.33-16.07-9.4-32.19-11.5-48.81c2.12,9.5,5.09,18.87,8.86,28.11 c10.38,25.45,21.11,48.4,21.16,76.49c0.03,19.15-4.84,37.3-13.04,54.09c0.48-1.18,0.97-2.35,1.42-3.55 C508.52,570.6,510.63,553.29,509.65,536.32z M515.4,553.1c3.94-26.22-1.66-51.41-12.09-75.42c-6.3-14.49-12.82-28.56-16.74-43.94 c-1.8-7.05-3.04-14.3-3.86-21.62c-0.1-4.94,0.05-9.84,0.35-14.71c0.04,1.53,0.11,3.06,0.2,4.59c1.42,22.29,10.64,43.31,19.13,63.64 c9.19,22.01,17.22,43.9,17.98,68c0.76,23.92-5.75,47.78-17.45,68.54c-10.51,18.66-25.34,33.33-42.68,44 c7.92-6.06,14.93-13.61,21.01-20.99C498.66,604.07,511.3,580.37,515.4,553.1z M478.87,374.75c1.01-4.86,2.13-9.7,3.35-14.51 c1.47-1.92,3.09-3.75,4.91-5.43c-0.6,1.9-1.16,3.81-1.69,5.74C482.83,365.03,480.67,369.8,478.87,374.75z M478.69,352 c-0.47,0.48-0.93,0.96-1.39,1.44c-0.3,0.12-0.61,0.23-0.9,0.36c-0.18-0.31-0.52-0.55-0.97-0.48c-0.02,0-0.05,0.01-0.07,0.01 C476.46,352.87,477.57,352.44,478.69,352z M406.14,464.92c1.82,23.14,8.78,45.54,11.85,68.51c2.79,20.87,1.82,42.88-7.92,61.91 c-9.74,19.03-29.33,29.6-48.69,36.45c-10.85,3.84-22.04,6.82-33.3,9.51c20.42-5.12,40.73-13.5,56.25-26.27 c23.77-19.56,31.68-46.68,30.23-76.69c-1.67-34.52-14.72-67.84-8.82-102.69c1.62-9.59,4.49-18.85,8.41-27.61 C407.11,426.34,404.6,445.29,406.14,464.92z M374.58,497.97c-0.44-18.77-0.46-37.46,3.82-55.85c0.55-2.34,1.18-4.65,1.88-6.95 c-2.03,9.04-3.24,18.38-3.74,27.9c-2.16,41.07,6.4,83.8-10.84,122.75c-9.15,20.67-24.97,37.76-44.11,49.46 c-0.87,0.17-1.76,0.29-2.64,0.43c16.28-11.73,29.53-27.53,39.09-45.25C373.85,561.17,375.35,530.62,374.58,497.97z M431.51,358.27 c3.36-1.96,6.84-3.76,10.41-5.42c-18.66,10.5-34.83,25.54-47.44,43.14c1.03-1.61,2.09-3.2,3.19-4.77 C406.72,378.25,418.31,367.03,431.51,358.27z M384.6,392.93c-22.17,29.02-29.63,62.94-31.04,98.75 c-1.64,41.55-6.81,82.38-32.82,115.61c6.2-8.62,11.13-18.22,15.08-27.98c16.8-41.45,13.63-87.37,22.61-130.54 c7.61-36.6,27.47-67.25,57.45-87.51C403.92,370.51,393.28,381.56,384.6,392.93z M416.31,364.87c5.98-4.58,12.23-8.48,18.72-11.94 c-0.74,0.45-1.5,0.88-2.23,1.35C427.06,357.39,421.55,360.95,416.31,364.87z M400.35,395.45c2.32-3.22,4.84-6.29,7.48-9.23 c-15.57,21.56-22.61,48.04-25.4,74.26c-3.76,35.33,2.45,71.03-3.7,106.18c-5.05,28.85-21.8,57.54-50.02,66.76 c11.57-8.14,21.72-18.37,29.91-30.19c21.47-30.97,21.08-69.02,20.14-105.15c-0.79-30.44-0.01-60.23,11.76-87.09 C393.48,405.6,396.77,400.4,400.35,395.45z M378.52,423.71c-3.29,7.31-6.02,14.83-8.12,22.47c0.52-2.47,1.06-4.94,1.67-7.39 c4.05-16.35,10.93-31.38,20.2-44.52C386.33,403.51,381.81,413.39,378.52,423.71z M387.31,412.17c-5.41,10.9-9.32,22.52-11.77,34.51 c0.52-4.05,1.21-8.09,2.16-12.1c0.56-2.37,1.23-4.72,1.94-7.04C381.88,422.31,384.45,417.19,387.31,412.17z M408.31,415.74 c-10.9,29.69-5.35,60.9-0.05,91.11c5.9,33.65,7.85,70.69-16.64,97.69c-11,12.13-25.61,20.33-40.65,26.33 c-1.85,0.74-3.72,1.41-5.6,2.06c21.15-9.01,40.04-21.86,52.85-42.68c11-17.87,14.55-38.91,12.55-59.57 c-2.37-24.51-11.73-47.74-13.01-72.44c-1.57-30.44,10.19-59.15,30.17-80.59c2.8-2.28,5.73-4.42,8.71-6.47 C424.05,383.64,414.49,398.9,408.31,415.74z M390.23,499.64c-0.49-11.01-0.84-22.22-0.47-33.34c0.11,11.09,1.34,22.26,3,33.46 c4.18,28.32,6.85,55.31-5.13,82.14c-4.41,9.86-10.27,18.53-17.27,26.12c3.13-4.05,5.97-8.43,8.44-13.24 C393.7,565.75,391.63,531.18,390.23,499.64z M384.89,591.22c12.12-20.65,15.06-43.8,12.92-67.32c-2.66-29.19-10.11-57.02-3.68-86.3 c0.83-3.78,1.87-7.5,3.06-11.16c-3.32,14.12-3.88,28.83-2.06,43.29c3.09,24.51,12.36,47.77,12.76,72.68 c0.39,23.9-10.13,47.1-26.81,63.88c-7.55,7.6-16.43,13.59-25.95,18.49C367.27,615.9,377.39,604.01,384.89,591.22z M394.89,428.82 c2.44-8.96,5.88-17.64,10.78-25.85c-0.75,1.51-1.48,3.04-2.17,4.59c-0.64,1.44-1.23,2.9-1.8,4.37c-2.05,4.2-3.89,8.51-5.48,12.92 C395.74,426.18,395.31,427.5,394.89,428.82z M416.87,384.74c-0.15,0.15-0.3,0.29-0.45,0.44c-22.1,22.45-28.73,53.29-29.52,83.78 c-0.95,36.18,5.72,72.53-4.07,108.05c-4.57,16.59-13.02,31.42-25.88,42.92c-1.31,1.17-2.67,2.29-4.06,3.37 c-4.5,3.19-9.26,6.1-14.21,8.76c-0.7,0.27-1.41,0.5-2.11,0.76c17.07-7.82,30.06-23.39,37.68-40.82 c13.21-30.25,10.17-64.83,9.74-96.94c-0.47-34.28,3.54-69.32,20.5-99.71c4.68-8.39,10.36-15.73,16.85-22.05 c5.37-4.44,11.06-8.49,17-12.1c3.72-2.27,7.52-4.24,11.39-6C437.02,362.75,425.87,372.72,416.87,384.74z M448.97,359.82 c-0.93,0.77-1.82,1.6-2.73,2.4c-1.42,0.84-2.82,1.71-4.21,2.59C444.28,363.06,446.59,361.39,448.97,359.82z M451,362.35 c2.76-1.5,5.55-2.89,8.38-4.19c-0.22,0.15-0.43,0.31-0.65,0.46c-4.8,2.33-9.22,5.26-13.26,8.66 C447.27,365.59,449.1,363.93,451,362.35z M424,347.96c-18.47,7.95-35.09,19.94-48.86,35.17c-18.16,20.09-27.45,44.43-32.76,70.03 c1.16-8.98,2.72-17.88,4.99-26.65c6.02-23.34,17.76-44.17,36.26-59.81c18.51-15.65,42.27-23.89,65.67-28.72 c3.83-0.79,7.68-1.45,11.55-2.05C448.09,338.14,435.68,342.23,424,347.96z M381.69,364.76c-5.15,4.15-9.66,8.72-13.66,13.63 c1.01-1.26,2.05-2.51,3.12-3.74c24.58-28.19,60.43-42.89,97.12-42.41C437.14,336.36,406.82,344.52,381.69,364.76z M475.44,339.95 c0.12-0.02,0.23-0.05,0.35-0.08c0.52-0.1,0.82-0.39,0.98-0.75c3.27-0.33,6.56-0.6,9.86-0.73c-0.62,0.22-1.22,0.48-1.83,0.71 c-3.06,0.19-6.1,0.54-9.13,0.97C475.61,340.02,475.53,339.98,475.44,339.95z M468.52,334.84c4.91-0.63,9.83-1.12,14.76-1.57 c1.31,0.17,2.63,0.35,3.94,0.56c0.69,0.11,1.15-0.48,1.14-1.01c0.17-0.01,0.34-0.03,0.51-0.05c1.78,0.55,3.54,1.18,5.29,1.82 C485.57,333.79,476.99,333.89,468.52,334.84z M388.06,341.96c-10.24,6.29-18.9,13.87-26.25,22.4c9.37-11.55,20.77-21.41,34.4-28.97 c29.49-16.38,63.47-16.43,94.59-5.53c-1,0.09-2,0.16-3,0.25C454.76,319.22,418.24,323.43,388.06,341.96z M492.68,328.17 c-27.96-11.81-60.18-10.91-88.11,0.49c-28.09,11.46-49.09,34.12-62.01,61.15c-17.02,35.59-19.75,74.8-23.91,113.71 c0.51-21.47,1.02-42.74,5.52-64.15c5.38-25.63,15.17-50.17,30.31-71.6c29.35-41.55,84.44-65.1,132.52-44.23 c0.43,0.23,0.86,0.44,1.28,0.68c1.52,1.13,3.01,2.3,4.46,3.52c-0.03,0.12-0.05,0.23-0.08,0.35 C492.65,328.11,492.68,328.14,492.68,328.17z M328.28,449.12c-4.56,37.67-2.93,76.84-16.32,112.59c0.07-1.21,0.12-2.42,0.19-3.63 C321.4,522.7,322.31,485.37,328.28,449.12z M313.31,518.39c0.12-6.82,0.25-13.64,0.45-20.46c0.16-0.02,0.31-0.07,0.45-0.16 C313.97,504.65,313.73,511.53,313.31,518.39z M392.3,323.01c-36.81,20.22-59.23,59.44-69.3,99.02c-5.2,20.45-7.28,41.54-8.28,62.59 c0.03-3.25,0.06-6.49,0.1-9.72c0.32-4.75,0.71-9.5,1.2-14.25c3.36-32.55,11.26-65.54,27.71-94.08 c14.73-25.56,37.84-46.95,66.22-56.04c19.63-6.28,40.01-5.01,58.27,2.41C443.25,305.98,415.41,310.31,392.3,323.01z M457.1,313.55 c-36.85-3.16-74.45,15.92-98.6,44.78c-14.05,16.8-24.13,36.84-30.75,57.74c0.16-0.57,0.3-1.15,0.47-1.72 c12.8-43.6,43.02-84.74,88.09-98.09C429.56,312.32,443.56,311.48,457.1,313.55z M316.1,515.12c0.13,2.07,0.29,4.13,0.48,6.19 c-0.6,4.67-1.25,9.33-1.99,13.97C315.34,528.59,315.78,521.86,316.1,515.12z M312.46,472.55c-0.6,6-1.14,12.02-1.58,18.07 c-0.06-7.12-0.16-14.24-0.1-21.31c0.18-21.2,2.71-41.86,8.6-62.05C314.42,428.35,312.71,450.55,312.46,472.55z M308.95,585.47 c16.8-30.97,19.28-67.74,22.45-102.12c3.78-41.01,9.71-83.48,38.2-115.34c25.97-29.04,65.1-42.07,103.14-37.74 c-31.28-1.97-62.07,7.66-87.17,27.08c-30.63,23.71-44.4,59.52-49.98,96.75c-5.87,39.1-4.33,79.16-18.17,116.77 c-9.39,25.53-27.43,46.01-50.58,56.74C284.46,618.44,299.01,603.78,308.95,585.47z M308.62,594.17 c19.17-30.24,22.1-68.01,24.97-102.75c3.18-38.55,7.88-76.63,30.72-108.15c-20.01,28.03-24.73,65.49-27.16,99.26 c-0.6,8.36-1.16,16.93-1.9,25.56c-1.02,10.33-2.15,20.68-3.77,30.88c-4.97,28.88-14.92,56.27-38.31,76.06 c-7.36,6.23-15.47,10.84-24.06,14.41C285.02,621.86,298.74,609.75,308.62,594.17z M329.9,557.73c5.07-17.95,7.01-36.5,8.38-55.16 c3.88-36.53,7.62-73.24,28.74-104.66c4.99-7.43,10.79-14.28,17.19-20.52c-21.39,23.54-31.87,53.93-36.14,86.14 c-6.01,45.36-5.53,93.09-32.08,132.3C322.33,583.99,326.73,570.98,329.9,557.73z M344.45,516.63c5.96-46.12,6.13-94.89,37.24-132.57 c15.87-19.22,37.48-33.15,61.12-40.65c1.46-0.42,2.92-0.85,4.39-1.22c-19.65,6.57-37.9,17.71-52.85,31.75 c-31.93,29.98-40.76,71.81-45.22,113.7c-4.56,42.86-7.16,89.72-36.52,124.12c-11.98,14.04-26.99,21.76-43.29,26.78 c7.91-3.1,15.42-7.15,22.43-12.76c4.24-3.39,8.02-7.15,11.48-11.16C330.08,589.98,339.92,551.75,344.45,516.63z M297.4,629.65 c-9.87,6.96-20.87,12.26-32.59,15.79c-12.6,3.79-25.6,5.03-38.66,5.54c7.6-1.21,15.18-2.33,22.59-3.7 C265.99,644.09,282.76,639.1,297.4,629.65z M245.79,642.58c-9.98,2.02-20.09,3.65-30.2,5.32c4.91-1.09,9.82-2.16,14.73-3.18 c18.7-3.9,37.37-7.79,54.12-16.79C272.96,635.39,259.83,639.74,245.79,642.58z M305.6,626.34c29.88-24.32,44.35-62.78,48.43-100.1 c2.49-22.84,1.29-45.9,5.02-68.64c2.89-17.59,9.64-34.46,18.8-49.69c4.93-8.2,10.65-15.85,16.99-22.96 c-28.39,33.43-31.53,79.52-35.3,121.32c-4.15,45.97-12.47,95.2-52.57,123.92c-17.46,12.5-38.48,19.32-59.42,23.14 c-17.3,3.16-35.12,2.18-52.51,4.27c6.07-1.84,12.31-3.24,18.59-4.44C246.53,653.05,279.23,647.8,305.6,626.34z M373.69,444.13 c-0.92,5.78-1.52,11.66-1.79,17.62c-0.89,19.13,0.18,38.19-1.76,57.29c-1.98,19.39-6.63,38.45-14.08,56.46 c10.67-27.47,10.41-56.29,10.93-86.03C367.27,473.65,369.45,458.54,373.69,444.13z M372.29,518.12c-0.16,19-1.57,37.82-8.61,56.45 c-10.81,28.6-32.4,51.59-57.97,67.7c-1.93,0.5-3.85,1.02-5.79,1.5c0.79-0.51,1.56-1.04,2.33-1.57 C345.27,616.84,366.46,567.56,372.29,518.12z M317.05,637.91c-1.76,0.97-3.54,1.92-5.35,2.8c-0.18,0.05-0.37,0.09-0.56,0.14 c1.77-1.07,3.51-2.18,5.22-3.34C316.49,637.74,316.71,637.91,317.05,637.91z M310.88,645.27c-2.77,0.62-5.55,1.24-8.31,1.86 c1.21-0.45,2.42-0.89,3.61-1.38c0.38-0.1,0.76-0.2,1.14-0.3c1.1-0.17,2.21-0.35,3.32-0.54 C310.69,645.05,310.77,645.17,310.88,645.27z M362.21,634.8c16.4-5.54,31.97-13.79,43.4-27.04c11.53-13.36,15.79-31.12,16.77-48.33 c2.58-45.25-20.68-87.67-10.73-133.19c3.51-16.03,10.47-30.76,20-43.52c-7.56,11.1-12.6,24.18-14.86,37.32 c-7.16,41.6,7.4,83.23,7.64,124.8c0.12,20.18-3.93,40.01-14.15,57.54c-10.78,18.51-29.76,30.76-49.22,38.56 c-20.54,8.23-42.94,11.12-64.73,13.92c-10.57,1.36-21.15,2.61-31.73,3.95c11.56-2.57,23.12-5.18,34.66-7.8 C320.35,646.23,341.71,641.72,362.21,634.8z M359.39,644.51c34.05-12.21,57.89-37.26,64.97-72.96c8.09-40.8-5.7-81.94-6.84-122.73 c-0.81-28.8,7.63-62.4,29.84-80.82c-13.3,13.06-22.49,30.54-25.93,49.54c-8.08,44.51,10.54,88.96,10.98,133.38 c0.23,23.39-5.39,46.62-20.85,64.67c-14.19,16.57-35.2,25.89-55.78,31.65c-0.15,0.04-0.3,0.07-0.44,0.11 c-4.6,0.91-9.22,1.73-13.79,2.5C347.56,648.37,353.52,646.62,359.39,644.51z M476.84,357.91c1.22-0.8,2.46-1.57,3.7-2.35 c-0.54,0.76-1.08,1.51-1.6,2.28c-1.12,1.2-2.19,2.43-3.26,3.66c-0.36-0.19-0.81-0.21-1.14,0.14c-4.08,4.42-7.73,9.21-10.98,14.29 C467.48,369.59,471.92,363.54,476.84,357.91z M463.02,543.82c1.82,19.86-0.18,39.77-9.46,58.13c-8.11,16.03-21.53,25.97-36.59,33.59 C445.21,614.66,463.3,580.51,463.02,543.82z M448.56,614.87c17.1-20.81,20.2-50.39,16.64-76.17c-4.08-29.55-16.59-57.51-18.51-87.3 c4.26,45.99,34.07,88.96,20.03,136.1c-8.1,27.19-30.38,44.84-55.84,55.82c-4.21,1.34-8.39,2.55-12.5,3.7 C417.37,640.21,435.67,630.57,448.56,614.87z M472.28,571.26c-0.29,10.98-2.3,21.85-7,32.38c-7.15,16.02-20.83,25.91-36.23,32.84 c12.78-8.03,23.96-18.51,32.09-31.28C467.77,594.81,471.12,583.2,472.28,571.26z M414.97,644.07c17.42-5.91,34.74-13.88,45.62-28.71 c14.67-20,15.43-44.99,11.35-68.58c-0.07-0.63-0.13-1.26-0.21-1.89c-2.15-17.24-7.45-33.87-12.41-50.53 c-3.3-16.41-5.1-32.76-4.52-49.52c0.73-21.16,5.75-40.54,13.25-59.29c-3.8,14.86-5.26,30.68-6.41,45.77 c-3,39.61,2.59,77.92,12.05,116.26c4.89,19.85,7.01,39.62-2.94,58.25c-8.18,15.34-23.02,26.47-38.45,33.76 c-9.62,4.54-19.96,7.5-30.48,9.67C406.32,647.73,410.7,646,414.97,644.07z M484.29,577.75c4.71-36.03-6.97-72.05-10.64-107.62 c-1.36-13.15-1.79-26.36-1.41-39.56c2.86,41.87,20.62,81.31,22.31,123.4c0.75,18.59-1.9,37.57-9.64,54.58 c-8.53,18.76-24.31,31.93-42.79,40.29c-14.55,6.58-30.4,9.45-46.32,10.89c15.77-2.12,31.13-6.33,45.22-13.83 C467.11,632.01,480.56,606.25,484.29,577.75z M436.62,657.71c-5.37,2.01-10.86,3.74-16.46,5.11c4.78-1.29,9.53-2.85,14.23-4.75 C435.14,657.96,435.89,657.87,436.62,657.71z M423.2,658.41c0.06,0.01,0.1,0.04,0.17,0.05c0.74,0.07,1.46,0.06,2.18,0.1 c-10.55,3.56-21.57,5.64-32.76,6.38c-8.3,0.55-16.53,0.19-24.73-0.65c2.45-0.07,4.9-0.12,7.35-0.2 C391.51,663.61,407.6,662.23,423.2,658.41z M403.22,669.97c5.59-0.81,11.15-1.83,16.66-3.06c0.19-0.04,0.37-0.07,0.56-0.11 c0.39-0.09,0.78-0.21,1.18-0.3c35.41-8.2,68.49-25.42,90.72-55.1c11.28-15.07,18.01-32.85,19.74-51.5 c0.28,20.53-3.88,40.74-15.44,58.85c-22.99,36.01-68.59,47.79-108.36,51.66c-10.72,1.04-21.6,1.58-32.53,2.06 C385.07,671.96,394.29,671.26,403.22,669.97z M495.23,338.92c0.7-0.2,1.39-0.42,2.09-0.61c0.27,0,0.47-0.08,0.63-0.21 c1.15,0.16,2.3,0.33,3.45,0.51c0.06,0.01,0.11-0.01,0.17,0c-0.28,0.04-0.57,0.07-0.85,0.12c-1,0.16-1.24,1.27-0.91,2.08 c-0.26,0.06-0.52,0.13-0.78,0.19c0.09-0.19,0.17-0.38,0.26-0.56c0.57-1.18-0.94-2.17-1.73-1.27c-0.18-0.12-0.38-0.21-0.65-0.22 C496.34,338.91,495.79,338.93,495.23,338.92z M523.78,254.04c6.27-5.83,13.54-10.39,21.36-13.72 c-19.93,10.53-35.77,28.71-43.88,49.81C505.5,276.53,512.88,264.17,523.78,254.04z M498.45,291.31c1.32-16.28,9.72-29.75,24.2-40.04 c1.89-1.34,3.84-2.56,5.82-3.69C513.98,258.34,503.03,273.58,498.45,291.31z M517.05,252.61c-8.48,6.88-16.13,16.7-19.7,27.49 c1.14-17.16,12.87-31.26,28.53-39.35c11.94-6.17,25.55-8.23,39.15-8.83c-6.67,1.13-13.15,3.08-19.29,5.73 C535.32,241.08,525.42,245.82,517.05,252.61z M497.75,316.48c0.43-2.61,0.64-5.19,0.7-7.74c3.49-18.13,11.64-34.83,24.79-48.41 c12.21-12.62,27.31-19.88,43.68-23.99c-35.21,12.49-63.69,43.53-68.99,82c-0.17,0.73-0.34,1.47-0.5,2.21 c-0.06,0.24-0.12,0.47-0.18,0.71c0-0.15-0.01-0.31-0.01-0.44C497.49,319.34,497.66,317.9,497.75,316.48z M660.77,282.96 c-15.97-14.75-36.62-22.45-58.16-23.64c-24.93-1.37-48.04,8.88-67.1,24.6c-4.59,2.78-8.97,5.88-13.04,9.32 c24.56-25.64,58.97-40.15,96.32-33.82c30.73,5.21,50.73,25.14,64.76,49.97C676.78,299.72,669.13,290.68,660.77,282.96z M683.15,315.69c-18.37-23.22-44.65-40.17-74.2-45.78c-18.86-3.59-38.92-1.26-57.05,5.88c14.64-8.99,31.28-14.38,50.71-13.82 c22.7,0.65,43.69,11.16,59.78,26.75C670.73,296.81,677.15,306.09,683.15,315.69z M698.44,547.43c-0.09,1.09-0.17,2.18-0.27,3.26 c-0.92,3-1.93,5.97-3.04,8.91c1.23-7.6,2-15.24,2.33-22.91c0.41-0.12,0.76-0.51,0.64-1.05c-0.18-0.78-0.36-1.55-0.55-2.32 c0.15-5.89,0.03-11.79-0.34-17.69c0.88,0.23,1.93-0.38,1.57-1.5c-5-15.86-3.54-32.61-5.36-48.87c4.28,15.18,6.01,31.4,6.28,47.65 c-0.41,11.28-1.35,22.56-2.13,33.64C697.53,547.08,697.98,547.39,698.44,547.43z M683.22,501.85c-0.29-0.67-0.63-1.32-0.94-1.98 c-0.44-2.1-0.96-4.18-1.54-6.24c0.94,2.37,1.85,4.74,2.72,7.13c-0.19,0.04-0.35,0.18-0.33,0.4 C683.16,501.39,683.19,501.61,683.22,501.85z M676.86,478.26c-8.48-20.87-18.85-38.34-37.48-51.58 c-20.26-14.4-44.9-21.17-67.52-30.78c-7.66-3.26-14.88-7.04-21.7-11.32c24.04,11.16,53.2,15.46,76.1,25.28 c10.37,4.45,19.96,10.41,28.18,18.16c9.85,9.3,15.51,21.88,20.18,34.35c7.9,21.12,14.87,43.53,20,65.62 c0.02,2.71,0.01,5.41-0.07,8.12C692.32,516.07,684.47,496.99,676.86,478.26z M508.94,356.63c0.23-1.35,0.47-2.71,0.79-4.09 c0.07,0.09,0.14,0.19,0.22,0.28c0.25,2.06,0.58,4.06,1,6c0.03,7.84,1.73,14.89,4.74,21.26c0.3,0.78,0.63,1.55,0.97,2.33 c-4.09-7.17-6.8-15.14-7.63-24.13c0.04-0.3,0.06-0.59,0.11-0.89C509.19,357.07,509.1,356.82,508.94,356.63z M507.5,342.38 c-0.24-0.2-0.59-0.29-0.93-0.23c0.12-0.4,0.27-0.78,0.39-1.18c3.43-0.38,6.87-0.66,10.3-0.89 C513.98,340.71,510.73,341.48,507.5,342.38z M516.48,346.94c37.85-4.66,75.87,2.59,110.11,19.92c25,12.65,44.72,31.83,57.75,55.25 c-2.36-3.71-4.88-7.34-7.58-10.86c-16.21-21.12-38.49-38.45-63.19-48.45c-29.74-12.04-62.34-13.96-94.16-13.14 c-1.09-0.56-2.16-1.14-3.21-1.78C516.29,347.57,516.39,347.26,516.48,346.94z M515.13,330.02c3.38-0.75,6.75-1.48,10.12-2.17 c7.56-0.98,15.31-0.73,23.02,0.01c-12.55-0.7-25.27,0.1-37.19,3.57C512.41,330.89,513.77,330.43,515.13,330.02z M543.2,324.87 c3.51-0.41,7.04-0.73,10.65-0.88c16.13-0.64,32.27,1.4,47.86,5.49c14.42,3.77,28.13,9.89,40.96,17.41c1.72,1.01,3.39,2.08,5.03,3.17 c-8.39-4.58-17.11-8.27-25.54-11.06c-19.69-6.53-40.51-9.43-61-12.17C555.26,326.05,549.22,325.25,543.2,324.87z M541.22,321.37 c33.22-6.77,67.98-1.93,98.1,16.53c7.78,4.77,14.93,10.46,21.42,16.85c-17.01-13.41-38.73-22.67-58.24-28.13 C583.78,321.39,561.98,319.12,541.22,321.37z M615.81,339.97c17.51,5.14,34.06,13.05,48.29,24.53c8.53,6.89,15.09,14.88,20.43,23.82 c-13.71-19.21-35.32-33.23-56.77-42.15c-15.9-6.62-32.89-11.14-49.89-14.36C590.65,333.82,603.35,336.31,615.81,339.97z M642.87,336.66c-24.06-16.02-54.41-23.26-83.88-21.25c8.15-1.71,16.44-2.84,24.94-3.04c25.02-0.6,48.57,9.53,67.62,25.24 c14.52,11.97,25.44,26.74,33.49,43.08C674.51,363.1,659.91,348.01,642.87,336.66z M651.68,334.08 c-18.42-15.16-40.96-23.7-64.78-24.35c-18.14-0.49-36.21,3.77-53.57,9.89c-5.07,1.35-10.04,3.03-14.88,4.98 c16.5-7.75,33.57-14.3,51.21-17.67c6.57-0.57,13.29-0.62,20.18-0.05c30.38,2.52,58.89,18.06,78.95,40.69 c19.91,22.46,30.14,52.14,34.82,81.35c1.36,8.49,2.12,16.98,2.49,25.47c-0.24-3.23-0.54-6.45-0.9-9.66 c-0.27-10.51-2.39-21.22-5.63-31.48C691.81,382.91,677.12,355.02,651.68,334.08z M592.52,304.51c5.93-0.1,11.91,0.18,17.96,1.01 c36.97,5.06,61.22,30.97,77.08,63.03c2.11,4.26,4.05,8.57,5.82,12.92c-6.06-13.69-13.97-26.53-24.21-38.05 C649.7,321.5,621.63,308.04,592.52,304.51z M702.78,500.03c-0.87-37.51-11.69-74.23-42.39-98.89 c-20.63-16.57-46.96-26.81-72.07-34.33c-13.55-4.06-27.36-6.69-41.29-9.03c-8.04-1.35-15.92-3.04-23.24-6.09 c28.69,0.97,57.23,1.94,84.51,12.27c25.26,9.57,47.42,26.55,64.43,47.38c12.17,14.9,20.86,31.91,26.15,49.87 c0.27,1.26,0.57,2.51,0.81,3.79c0.04,0.22,0.19,0.35,0.37,0.42c0.96,3.65,1.8,7.32,2.48,11.03c0.1,2.77,0.2,5.53,0.3,8.27 c0.03,0.67,0.6,0.96,1.11,0.88c0.84,6.86,1.21,13.79,1.13,20.71c-0.2,3.9-0.39,7.79-0.57,11.69c-0.3,3.44-0.7,6.86-1.22,10.28 C703.84,518.87,703.61,509.39,702.78,500.03z M581.58,381.72c-12.73-3.47-25.38-7.14-37.45-12.54c-7.55-3.37-14.29-7.81-20.68-12.79 c42.29,21.08,92.03,24.41,131.25,52.01c6.73,4.74,12.51,10.06,17.47,15.84c-8.16-6.94-17.67-12.61-26.21-17.58 C625.79,394.91,603.98,387.83,581.58,381.72z M622.63,398.23c-32.03-11.82-68.75-14.91-95.91-36.34c11.32,8,24.49,13.47,37.67,17.66 C584.04,385.8,603.7,390.47,622.63,398.23z M687.09,448.89c4.04,10.01,4.44,20.68,4.67,31.41c-5.33-21.44-14.63-42.72-29.94-58.24 c-4.36-4.43-9.08-8.18-14.06-11.46C664.06,419.83,680.25,431.92,687.09,448.89z M664.55,412.31 c-40.29-36.05-99.11-35.02-145.29-59.66c15.46,7.82,34.81,8.49,51.28,12.06c26.95,5.84,53.7,16.03,77.17,30.55 c23.58,14.59,38.9,36.31,46.62,62.61C688.2,440.56,678.46,424.76,664.55,412.31z M700.61,447.77c-2.76-12.79-6.68-25.23-13.19-36.96 c-10.57-19.04-29.54-32.41-47.67-43.6c-8.03-4.95-16.6-9.47-25.52-13.4c8.95,3.32,17.74,7.2,26.33,11.71 c21.11,11.08,40.37,25.51,50.79,47.5C696.51,423.93,699.15,435.74,700.61,447.77z M638.32,369.67 c18.18,10.92,35.67,24.14,46.92,42.42c8.49,13.8,12.67,30.14,15.93,46.24c-0.97-3.06-2.03-6.1-3.18-9.1 c-19.59-76-105.64-113.59-180.44-105.48c0.02-0.06,0.04-0.12,0.06-0.18c19.42-3.02,38.38-3.1,58.27,0.84 C598.04,348.79,619.03,358.09,638.32,369.67z M521.28,365.89c-0.37,0.22-0.56,0.74-0.19,1.2c6.49,7.8,13.91,14.6,21.94,20.65 c-11.32-6.54-21.22-14.62-25.34-25.59C518.86,363.42,520.06,364.66,521.28,365.89z M525.79,364.64 c34.57,27.96,85.4,25.95,122.38,50.45c24.72,16.38,35.89,46.33,42.09,74.09c2.25,10.07,3.59,20.37,4.11,30.73 c-4.73-19.68-9.81-39.13-16.73-58.36c-7.43-20.67-19.11-36.96-38.17-48.2C604.05,392.44,554.82,394.44,525.79,364.64z M609.45,421.96c31.53,12.27,53.16,35.07,66,64.72c-7.95-13.62-17.96-26.12-29.16-36.76c-11.41-10.85-24.17-20.03-37.55-28.24 C608.98,421.77,609.22,421.87,609.45,421.96z M597.3,414.94c-6.3-3.54-12.68-6.91-19.11-10.16c-5.44-2.75-11.9-5.54-18.55-8.61 c-5.47-3.69-10.7-7.64-15.8-11.76c4.36,2.91,8.86,5.62,13.5,8.08c21.52,11.39,45.36,17.57,66.99,28.73 c22.39,11.56,36.82,28.23,47.14,50.68c-10.79-18.77-27.47-34.54-45.96-44.65C616.49,422.31,606.89,418.66,597.3,414.94z M687,362.27 c-16.08-31.03-40.76-53.28-75.92-58.94c-12.54-2.02-25.1-1.69-37.46,0.29c-24.75,0.7-49.09,8.76-68.46,25.13 c-0.33,0.02-0.66,0.05-0.99,0.07c22.27-17.7,48.29-30.44,76.94-32.93c30.3-2.63,59.6,7.89,81.13,29.24 c36.52,36.22,50.45,88.6,51.05,139.07c-0.25,16.58-1.6,33.1-3.9,49.48C715.78,462.04,711.51,409.58,687,362.27z M502.16,328.09 c31.84-35.05,78.52-54.4,125.18-38.29c37.73,13.03,56.68,46.94,70.38,82.23c-9.3-20.07-21.81-38.28-37.14-52.78 C615.06,276.16,545.71,290.26,502.16,328.09z M503.57,331.76c-0.31,0.14-0.62,0.28-0.93,0.41c-0.16,0.07-0.26,0.2-0.31,0.33 c-0.73,0.43-1.47,0.86-2.19,1.31c-0.37,0.23-0.49,0.56-0.47,0.89c-0.78-0.35-1.56-0.69-2.35-1.02c0.05-0.12,0.1-0.24,0.15-0.35 c0.41-0.11,0.78-0.39,0.93-0.86c0.18-0.1,0.33-0.24,0.36-0.46c1.53-0.11,3.07-0.22,4.6-0.32 C503.44,331.73,503.5,331.75,503.57,331.76z M630.82,287.17c-40.73-16.67-86.38-2.27-117.78,26.29 c20.69-23.56,50.47-37.66,82.47-37.2c40.72,0.59,74.15,25.89,93.58,60.34c7.99,14.17,13.42,29.54,17.08,45.44 C692.39,342.4,671.03,303.62,630.82,287.17z M616.83,256.42c-34.99-5.86-72.25,8.79-96.74,34.64 c23.34-27.78,59.18-42.71,97.04-37.08c24.48,3.64,47.1,16.5,62.82,35.54c11.24,13.61,16.22,30.75,20.09,48.08 c-0.37-0.73-0.73-1.45-1.09-2.18C684.06,297.55,660.94,263.82,616.83,256.42z M503.25,314.43c-0.65,1.23-1.27,2.48-1.87,3.73 c4.95-16.07,13.41-30.3,24.43-41.94c15.2-13.43,35.21-21.88,56.13-24.91C547.46,257.75,516.91,281.42,503.25,314.43z M519.42,279.2 c-3.69,3.83-7.04,7.97-9.97,12.42c2.1-4.31,4.45-8.48,7.08-12.46c3.14-4.58,6.58-8.93,10.34-12.93c0.21-0.21,0.41-0.42,0.62-0.64 c0.62-0.65,1.27-1.27,1.91-1.9c2.56-2.42,5.29-4.7,8.25-6.82c9.38-6.72,20.39-9.97,31.62-11.86 C549.74,251.36,532.45,263.43,519.42,279.2z M500.85,342.2c-0.04,0.09-0.08,0.18-0.12,0.27c-0.57,0.47-1.14,0.93-1.7,1.41 c-0.13-0.32-0.41-0.57-0.76-0.67C499.13,342.87,499.99,342.54,500.85,342.2z M497.06,377.25c0.9,5.37,2.36,10.75,4.19,16.12 c-1.37-3.71-2.78-7.39-4.21-11.07C497.02,380.61,497.02,378.93,497.06,377.25z M502.24,335.56c-0.28-0.04-0.55-0.07-0.83-0.11 c1.36-0.71,2.73-1.39,4.11-2.06c-0.48,0.6-0.04,1.64,0.92,1.45c39.01-7.96,78.23-1.23,115.29,12.39 c27.35,10.05,51.2,27.22,65.16,51.83c-10.09-14.21-24.63-24.74-39.91-33.51c-41.4-23.78-91.51-33.71-138.95-27.83 c0.15-0.42,0.27-0.85,0.42-1.27c0.49-1.36-1.78-2.32-2.34-0.99c-0.22,0.53-0.4,1.05-0.61,1.58c-0.45-0.69-1.38-1.03-2.02-0.49 c-0.06-0.03-0.12-0.06-0.18-0.09C503.18,336.02,502.86,335.65,502.24,335.56z M506.13,356.77c-0.05,0.32-0.14,0.64-0.19,0.96 c-0.18-0.41-0.7-0.51-1.06-0.32c0.19-2.25,0.55-4.48,0.99-6.69C505.85,352.79,505.96,354.8,506.13,356.77z M505.71,370.7 c0.04,0.97,0.09,1.94,0.18,2.91c-0.56-3.14-0.93-6.39-1.1-9.74C504.98,366.21,505.31,368.48,505.71,370.7z M521.87,413.13 l-0.19-0.21c-4.7-5.92-8.99-12.17-12.59-19.03c-0.74-1.41-1.42-2.85-2.06-4.3c-0.43-1.64-0.85-3.28-1.21-4.93 C509.34,394.71,515.08,404.23,521.87,413.13z M527.45,407.96c8.51,7.58,18.54,13.7,28.12,19.39c19.35,11.5,37.24,23.42,52.33,40.35 c14.85,16.66,25.83,36.63,32.78,57.78c0.41,1.26,0.79,2.54,1.17,3.81c-5.09-15.85-12.82-30.79-22.98-43.76 c-17.87-22.81-42.2-37.31-65.23-54.21C544.38,424.54,535.23,416.76,527.45,407.96z M599.6,454.74 c-15.28-14.68-33.82-24.4-51.67-35.47c-18.6-11.54-35.31-27.02-39.07-49.13c3.05,9.28,8.26,17.51,14.88,24.91 c1.58,2.27,3.26,4.47,5.07,6.57c17.07,19.89,42.52,30.52,64.24,44.2c42.96,27.06,67.63,76.84,63.03,127.41 c-1.64-0.42-3.28-0.85-4.93-1.25c-0.02-3.62-0.12-7.23-0.37-10.81C647.99,520.74,628.64,482.64,599.6,454.74z M630.04,453.49 c-19.34-17.18-42.66-27.96-65.25-40c-21.1-11.25-42.77-27.15-50.24-50.33c-0.01-0.23-0.05-0.46-0.06-0.69 c4.42,15.12,15.88,27.37,29.1,36.43c10.59,7.26,22.53,12.44,34.05,18c12.18,5.87,23.76,12.63,34.83,20.41 c42.93,30.16,87.77,86.81,61.64,140.91c-1.07-0.32-2.14-0.63-3.21-0.95C688.97,532.35,663.74,483.42,630.04,453.49z M677.4,511.23 c-9.62-23.19-26.67-43.64-44.92-60.55c-18.85-17.46-40.51-29.69-63.51-40.77c-16.33-7.86-34.73-18.39-45.01-33.65 c7.6,8.28,18.29,14.6,28.21,19.36c4.29,2.06,8.56,4.13,12.81,6.22c5.42,2.99,10.97,5.77,16.58,8.38 c15.19,7.95,29.97,16.57,43.95,26.87c27.28,20.08,50.47,49.04,60.12,81.33c1.11,7.19,2.04,14.38,1.84,21.92 c-0.37,13.94-4.43,26.42-8.35,39.43c-1.08-0.34-2.16-0.69-3.25-1.02C688.45,558.64,686.13,532.29,677.4,511.23z M689.61,543.17 c0.09-1.35,0.16-2.75,0.21-4.17c1.5,14,0.29,28.39-4.37,42.74c-1.35-0.44-2.71-0.85-4.07-1.27 C686.8,569.01,688.8,555.59,689.61,543.17z M688.71,581.85c0.63,0.31,1.49,0.16,1.73-0.71c0.61-2.21,1.16-4.42,1.69-6.63 c2.36-4.74,4.46-9.57,6.3-14.48c-1.86,8.1-3.89,16.12-6.05,24.03c-1.32-0.45-2.64-0.88-3.97-1.32 C688.53,582.44,688.62,582.14,688.71,581.85z M707.6,374.95c-0.01,0.05-0.01,0.1-0.02,0.15c-4.78-18.09-11.88-35.47-22.35-51.27 c-21.31-32.15-56.4-51.55-95.09-51c-24.73,0.35-48.26,10.27-66.38,26.42c4.65-4.93,9.52-9.56,14.65-13.78 c20.91-12.62,46.43-17.55,72.34-12.59c24.78,4.75,47.49,18.22,64.72,36.42C692.84,327.66,702.74,350.59,707.6,374.95z M706.73,352.47c-4.26-21.02-9.16-42.64-21.04-60.36c7.95,10.38,14.06,22.17,17.97,34.77C705.15,335.31,706.05,343.87,706.73,352.47 z M699.08,307.98c0.17,0.51,0.34,1.02,0.5,1.54c-14.88-29.92-43.14-52.73-78.36-60.08c-25.58-5.34-53.19-1.25-75.98,10.64 c15.58-10.08,33.89-16.15,53.46-16.99C643.08,241.17,681.5,268.65,699.08,307.98z M621.48,242.04c2.2,0.17,4.4,0.39,6.59,0.68 c17.2,2.34,31.79,11.37,43.7,23.4C657.5,254.02,640.1,245.65,621.48,242.04z M624.94,236.75c7.69,1.91,15.02,4.7,21.91,8.25 c-5.82-2.53-11.95-4.36-18.39-5.22c-8.14-1.08-16.37-1.27-24.6-0.97c-2.21-1.79-4.49-3.48-6.89-5 C606.1,233.48,615.47,234.4,624.94,236.75z M599.42,239.02c-7.44,0.42-14.88,1.17-22.23,2.01c-9.38,1.08-18.53,3.13-27.12,6.66 c12.39-7.31,26.27-12.05,40.96-13.48C593.89,235.69,596.68,237.3,599.42,239.02z M530.87,226.65c5.16-1.48,10.33-2.32,15.46-2.64 c-6.42,1.02-12.66,2.86-18.29,5.31c-0.6-0.4-1.2-0.83-1.81-1.2C527.77,227.58,529.33,227.09,530.87,226.65z M527.47,232.21 c0.16,0.11,0.32,0.2,0.49,0.31c1.11,0.75,2.12-0.39,1.94-1.43c7.48-3.16,15.67-4.67,23.73-5c8.75-0.36,16.27,1.84,24.03,4.43 c-0.25,0.04-0.5,0.07-0.75,0.11c-20.59-1.15-41.03,0.52-59.17,11.74c-15.61,9.66-25.78,28.03-22.28,46.35 c-0.03,0.24-0.07,0.47-0.09,0.71c-0.86-2.45-1.89-4.83-3.1-7.11c-0.09-0.56-0.18-1.12-0.26-1.67c3.26-18.97,14.34-35.76,30.9-45.99 C524.39,233.76,525.92,232.96,527.47,232.21z M525.04,230.69c-1.16,0.57-2.3,1.17-3.39,1.8c-16.23,9.25-26.88,26.18-30.12,44.27 c-0.99-9.96,0.28-18.87,6.26-28.3c5.72-9.03,15.09-15.1,24.98-19.04C523.52,229.82,524.28,230.25,525.04,230.69z M518.57,227.49 c0.01,0,0.02,0,0.03,0c0.24,0.1,0.49,0.19,0.73,0.3c-10.27,4.54-19.25,11.79-25.24,21.36c-2.3,3.67-4.1,8.12-5.13,12.79 c-0.32-6.74,0.24-13.41,3.15-19.86C496.64,232.05,508.14,226.97,518.57,227.49z M492.15,236.92c-5.79,7.57-6.16,17.61-5.01,27.12 c-3.14-16.57,0.3-37.02,18.13-37.3C500.18,228.81,495.71,232.27,492.15,236.92z M487.11,272.63c0.33,0.13,0.66,0.09,0.96-0.04 c0.08,1.26,0.23,2.5,0.47,3.72c-0.45-0.63-0.92-1.25-1.4-1.86c0.11-0.06,0.19-0.15,0.18-0.31 C487.28,273.64,487.18,273.13,487.11,272.63z M492.03,224.03c2.93-0.31,5.86-0.42,8.79-0.31c-4.44,1.25-8.67,4.16-11.48,7.38 c-8.41,9.62-7.23,25.75-2.89,36.78c-0.18-0.19-0.36-0.38-0.55-0.57c-0.98-3-2.42-5.89-4.2-8.6c-1.65-6.05-3.26-12.11-3.25-18.4 c0.01-8.15,5.38-13.5,12.66-16.04C491.26,224.21,491.59,224.13,492.03,224.03z M486.2,273.3c-8.41-10.19-20.6-17.41-34.93-19.61 c-12.3-1.89-23.82,0.82-34.28,6.27c8.14-10.78,20.9-14.31,34.68-11.38c12.23,2.61,22.36,10.86,31.04,19.65 c0.05,0.14,0.11,0.3,0.16,0.44c0.13,0.36,0.43,0.49,0.72,0.45c0.58,0.6,1.15,1.19,1.72,1.79C485.62,271.71,485.92,272.5,486.2,273.3 z M483.75,225.39c-2.51,1.83-4.63,4.29-6.13,7.64c-1,2.22-1.5,4.64-1.64,7.15c-0.49-1.93-1.33-3.77-2.54-5.58 c-0.85-1.28-2.53-3.4-4.38-4.79C473.92,228.01,478.82,226.47,483.75,225.39z M465.89,231.02c0.33,0.17,0.68,0.33,1.12,0.54 c1.65,0.8,2.97,2.21,4.16,3.57c2.12,2.43,3.42,5.75,3.95,9c-4.35-5.69-11.06-9.17-18.56-9.16 C459.64,233.59,462.75,232.26,465.89,231.02z M450.33,237.86c0.21,0.1,0.46,0.15,0.75,0.08c10.49-2.62,20.53,1.78,25.47,10.36 c0.31,1.76,0.72,3.52,1.2,5.26c-6.71-7.47-16.07-12.84-25.34-14.05c-1.61-0.21-3.26-0.28-4.94-0.28 C448.42,238.77,449.38,238.31,450.33,237.86z M424.18,248c4.41-3.09,9.44-5.07,14.67-6.11c-0.18,0.58,0.44,1.29,1.16,0.94 c1.11-0.54,2.23-1.08,3.36-1.62c2.27-0.21,4.56-0.24,6.83-0.12c13.27,0.76,22.97,8.55,29.52,18.78c0.24,0.71,0.49,1.42,0.74,2.11 c-9.51-8.75-20.72-16.17-33.72-17.26c-13.89-1.17-28.85,4.31-34.45,17.92c-0.73,0.45-1.46,0.91-2.18,1.39 C413.99,257.82,417.81,252.45,424.18,248z M445.83,255.99c20.06,0,36.28,11.89,44.77,28.22c-0.03,0.49-0.03,0.98-0.05,1.46 c-1.73-3.89-3.85-7.57-6.57-10.81c-8.42-10.02-19.73-14.02-32.51-15.16c-15.22-1.36-31.43,2.7-44.93,10.79 C417.55,261.82,430.29,255.99,445.83,255.99z M446.58,267.04c10.4,0.69,20.52,4.3,28.94,10.31c-1.03-0.66-2.07-1.3-3.14-1.9 c-20.52-11.49-45.89-4.96-65.51,5.02c-8.24,4.19-16.08,9.35-23.5,15.17C398.4,276.54,421.97,265.41,446.58,267.04z M421.78,282.02 c27.58-8.14,61.96,3.38,71.03,30.35c-5.44-8.82-14.07-16.13-22.49-20.72c-16.64-9.05-36.85-8.86-54.66-3.94 c-12.24,3.38-23.63,9.4-34.03,17.16C393.27,294.91,406.15,286.63,421.78,282.02z M404.52,295.26c17.21-7.92,36.73-9.95,54.94-4.56 c9.57,2.84,18.11,8.45,24.91,15.68c3.64,3.87,6,8.11,7.87,12.62c-16.04-23.43-48.39-31.63-75.79-25.13 c-18.43,4.37-34.71,14.49-48.68,27.53C378.42,310.62,390.71,301.62,404.52,295.26z M231.9,520.69 c4.57-31.59,11.48-63.79,20.87-94.29c9.21-29.94,23.86-57.34,46.22-79.48c20.75-20.54,46.26-33.74,73.88-42.35 c-19.17,17.92-34.4,40.8-43.35,65.1c-0.98,1.91-1.92,3.82-2.82,5.72c-0.24,0.51,0.14,0.92,0.55,0.92c-0.46,1.46-0.92,2.92-1.33,4.39 c-8.07,17.39-13.61,36.17-16.13,55.13c-3.41,25.68-1.62,51.57-2.36,77.38c-0.66,22.98-4.44,45.98-15.45,66.42 c-9.58,17.8-24.9,29.1-43.09,35.63C228.17,588.14,227.2,553.15,231.9,520.69z M120.38,654.52c26.63-30.39,78.53-24.73,115.44-32.25 c19.8-4.03,37.69-13.03,50.65-28.75c12.11-14.68,18.27-33.62,21.52-52.09c0.49-2.79,0.9-5.58,1.24-8.38 c-0.02,5.89,0.03,11.77,0.2,17.62c-1.26,6.23-2.88,12.41-5,18.5c-5.77,16.6-15.67,30.49-29.11,40.52c-0.3-0.57-1.11-0.9-1.63-0.31 c-1.26,1.44-2.55,2.79-3.87,4.07c-4.15,2.6-8.58,4.88-13.3,6.79c-20.5,8.26-43.33,9.6-65.08,11.84 C167.89,634.5,139.77,639.17,120.38,654.52z M137.92,648.89c7.21-3.75,14.89-6.37,23.64-8c16.34-3.04,33.28-2.04,49.81-2.82 c3.62-0.17,7.4-0.47,11.24-0.91c0.1,0.37,0.34,0.71,0.73,0.87c-7.42,1.65-15.01,2.77-22.7,3.49 C179.78,643.5,158.11,643.41,137.92,648.89z M157.41,657.63c25.26-10.51,55.02-12.53,81.32-17.7c20.14-3.95,39.72-10.47,55.96-23.37 c7.65-6.08,13.94-13.57,19.14-21.8c-3.47,6.25-7.55,12.27-12.36,18c-12.97,11.88-28.82,19.61-46.42,24.39 c-24.76,6.72-50.45,10.65-75.57,15.78C172.13,654.44,164.73,655.86,157.41,657.63z M175.94,657.86c4.49-0.51,8.97-1.13,13.45-1.84 c-1.54,0.51-3.08,0.99-4.59,1.55c-0.98,0.37-1.96,0.78-2.94,1.19C179.92,658.36,177.94,658.06,175.94,657.86z M175.89,665.4 c9.35-3.42,19.79-4.97,29.29-5.57c21.36-1.35,41.95-2.51,62.68-8.39c39.43-11.19,68.87-37.72,82.49-76.48 c10.37-29.53,11.61-60.86,14.71-91.85c-0.45,11.62-0.18,23.31-0.43,34.88c-0.42,19.12-3.27,37.52-10.1,55.41 c-11.22,29.41-32.77,54.49-59.53,70.86c-0.92,0.48-1.83,0.98-2.76,1.43c-17.9,4.43-35.86,8.79-52.6,15.69 c-0.05,0.01-0.1,0.02-0.15,0.04c-27.29-4.05-59.92-0.37-81.4,16.89C163.34,673.23,169.42,668.88,175.89,665.4z M205.8,664.73 c-11.46-0.35-22.39,2.37-32.63,7.41c-7.61,3.74-14.62,9.14-20.51,15.58c8.32-9.43,18.89-16.31,31.98-20.35 c15.46-4.78,30.78-3.91,46.34-3.92c-0.6,0.15-1.2,0.28-1.8,0.43c-0.75,0.19-0.97,0.82-0.83,1.39 C220.93,665.64,213.34,664.96,205.8,664.73z M233.65,668.1c4.31-0.7,8.45-1.97,12.33-4.1c3.16-0.35,6.32-0.74,9.48-1.12 c-10.87,2.39-21.55,5.66-31.9,10.46C226.83,671.48,230.2,669.72,233.65,668.1z M212.19,686.33c-6.74,4.6-12.9,10.12-18.11,16.39 c-3.98,4.02-7.59,8.37-10.68,13.09c2.44-5.7,5.43-10.88,8.89-15.62c24.04-27.09,63.62-35.58,99.42-39.71 c25.33-2.92,51.94-5.21,76.12-13.46c5.7-1.47,11.34-3.12,16.86-5.06c32.55-11.41,50.35-40.09,56.2-72.89 c7.1-39.82-5.57-80.12-9.37-119.59c-2.01-20.93-0.67-42.33,9.41-61.16c6.72-12.56,17.28-22.62,29.58-29.6 c-7.59,5.5-14.5,11.84-19.96,19.2c-12.72,17.16-16.6,37.74-15.96,58.75c1.48,48.35,28.9,93.24,12.93,141.9 c-7,21.32-20.78,40.18-38.61,53.69c-18.75,14.21-42.4,20.11-65.25,23.64C299.07,662.81,251.11,659.75,212.19,686.33z M344.46,660.76 c5.24,0.35,10.54,0.59,15.86,0.71c-3.61,0.1-7.23,0.19-10.84,0.27c-2.06-0.33-4.12-0.67-6.18-1.02c0.26-0.03,0.52-0.06,0.78-0.09 C344.19,660.71,344.31,660.75,344.46,660.76z M338.14,664.96c3.66-0.06,7.31-0.14,10.97-0.22c5.86,0.91,11.73,1.62,17.6,2.1 C357.22,666.4,347.68,665.64,338.14,664.96z M358.96,658.82c5.14-0.71,10.24-1.52,15.26-2.47c0.15-0.02,0.31-0.03,0.46-0.05 c18.31-2.08,36.3-4.9,53.59-11.55c18.41-7.08,34.79-19.6,44.36-36.17c-6.18,12.85-15.45,24.09-28.45,32.49 C418.58,657.59,388.41,658.25,358.96,658.82z M350.55,673.68c-17.08,1-34.06,2.72-50.53,6.73 C316.16,676.01,333.32,674.57,350.55,673.68z M274.65,690.65c1.83-1.04,3.69-1.99,5.56-2.9c0.07,0.27,0.23,0.51,0.45,0.66 C278.63,689.1,276.62,689.83,274.65,690.65z M296.7,684.3c40.56-9.74,82.27-7.3,123.71-12.49c36.97-4.63,74.81-18.24,97.38-49.48 c23.92-33.12,18.69-77.27,7.92-114.06c-11.8-40.33-31.79-78.64-34.67-120.76c0.11-2.98,0.35-5.94,0.75-8.9 c0.61,1.87,1.2,3.75,1.81,5.63c0.65,28.72,10.95,57.79,21.34,84.17c18.1,45.94,37.57,96.11,13.75,143.79 c-9.76,19.54-25.87,35.36-45.04,45.61c-21.28,11.39-46.06,14.86-69.51,18.97c-8.56,1.5-17.39,3.26-26.12,5.52 c-24.86-4.62-52-6.15-76.26,1.1c-0.08-0.45-0.4-0.83-1.03-0.79C306.15,682.9,301.43,683.46,296.7,684.3z M358.24,695.64 c9.67-4.74,20.11-8.02,30.73-10.53c1.39,0.12,2.78,0.24,4.17,0.34c0.84,0.06,1.2-0.86,0.96-1.5c7.01-1.52,14.04-2.78,20.91-4.01 c22.24-3.95,44.51-7.61,65.29-16.85c17.74-7.89,32.52-21.03,43.72-36.74c0.58-0.81,1.12-1.62,1.66-2.42 c-18.56,31.3-50.21,49.68-85.62,55.87c-27,4.73-56.69,4.81-81.86,16.07C358.22,695.8,358.24,695.72,358.24,695.64z M355.82,693.92 c-6.5-3.3-13.86-4.98-21.21-5.78c10.18-0.94,20.5-0.35,30.54,1.57C361.97,690.99,358.86,692.4,355.82,693.92z M278.13,709.25 c-0.17,0.16-0.21,0.36-0.17,0.55c-1.67,1.47-3.29,3.01-4.78,4.63c9.81-13.93,23.78-23.37,40.87-28.64 c21.97-6.77,44.36-3.77,66.66-1.49c-3.92,1.16-7.79,2.43-11.59,3.85c-14.74-3.52-31.06-3.81-46.63-0.71 c-3.55,0.05-7.51,0.55-9.99,2.51C299.67,693.87,287.73,700.23,278.13,709.25z M311.73,693.44c0.25-0.2,0.49-0.41,0.75-0.59 c2.29-0.78,4.61-1.52,7.03-2.14c2.11-0.55,4.24-0.99,6.37-1.39c9.13,0.08,19.29,3.49,27.34,5.92c-1,0.53-2,1.07-2.98,1.63 C339.28,690.84,324.59,690.82,311.73,693.44z M329.64,717.69c2.31-2.74,4.82-5.31,7.46-7.75c0.14,0.37,0.57,0.63,1.01,0.57 C335.15,712.66,332.32,715.03,329.64,717.69z M340.79,708.65c33.86-25,78.03-19.78,117.03-29.93c14.13-3.68,27.07-10.15,38.45-18.7 c-3.4,2.66-6.91,5.18-10.54,7.51c-18.5,11.9-39.42,16.71-60.96,19.55C396.44,690.81,364.74,692.74,340.79,708.65z M445.78,686.4 c35-7.47,64.72-29.6,83.55-59.8c21.34-34.22,23.01-72.65,13.51-111.05c-5.7-23.03-14.4-45.34-22.35-67.65 c-5.8-16.28-11.3-32.72-17.21-48.99c8.93,23,23.9,45.48,31.87,64.94c18.04,44.07,24.05,94.68,8,140.24 c-13.64,38.72-44.46,72.15-83.88,84.92c-19.37,6.27-40.94,5.93-62.02,6.96c-2.35-0.31-4.71-0.65-7.06-1.03 c-0.95-0.16-1.38,1.21-0.44,1.48c-7.48,0.53-14.86,1.37-22.01,2.87C392.73,691.82,421.32,691.62,445.78,686.4z M526.89,433.86 c1.39,1.8,2.8,3.58,4.22,5.34c-0.36,0.03-0.7,0.33-0.74,0.69C529.21,437.88,528.05,435.87,526.89,433.86z M604.79,567.25 c0.08,0.01,0.15,0.03,0.23,0.04c0.15,1.1,0.25,2.21,0.38,3.32c0.15,0.59,0.31,1.18,0.5,1.75c0.13,0.41,0.03,0.76-0.19,1.03 c0.22,2.35,0.39,4.71,0.49,7.1c1.77,42.31-21.05,87.13-61.19,103.88c-9.24,3.86-19,5.79-28.9,7.16 c15.37-3.29,29.99-10.24,42.56-19.69c21.61-16.25,34.62-40.36,39.05-66.77c9.08-54.15-18.84-106.66-52.01-148.73 c27.09,30.77,51.08,64.69,58.34,105.07c0.37,0.21,0.64,0.58,0.65,1.17c0,0.84,0,1.68,0.01,2.53c0,0.12-0.03,0.21-0.05,0.32 C604.68,566.04,604.72,566.65,604.79,567.25z M577.71,511.91c12.93,26.3,19.93,55.31,17.64,84.67c-3.67,47.2-38.32,82.69-82,91.87 c10.81-3.75,21.27-8.49,31.17-14.65c25.14-15.64,43.56-40.72,47.23-70.48c4.25-34.49-7.21-67.58-23.19-97.67 c-8.87-16.71-18.82-32.84-28.49-49.1c-3.02-5.08-5.99-10.21-8.95-15.35C547.9,464.13,565.1,486.26,577.71,511.91z M553.84,521.29 c-1.61-12.67-4.45-25.24-8.23-37.5c6.5,16.58,11.15,33.81,13.55,51.85c4.05,30.4,2.68,64.4-10.32,92.58 c-12.91,27.99-41.22,47.57-69.02,58.79c-17.26,6.97-35.14,10.21-53.23,10.62c2.99-0.18,5.97-0.4,8.93-0.7 c38.21-3.83,70.36-25.47,92.29-56.42C552.32,605.93,559.12,562.71,553.84,521.29z M548.2,634.33c16.24-27.8,16.95-64.83,13.64-95.93 c-2.78-26.15-10.18-52.47-22.17-76.12c23.55,42.05,39.06,91.12,28.46,139.37c-4.64,21.13-14.75,41.02-29.26,57.05 c-16.36,18.09-38.39,27.32-61.64,33.02c-4.06,1-8.21,1.9-12.41,2.79C499.26,685,530.78,664.14,548.2,634.33z M536.12,666.14 c13.9-12.83,23.72-29.61,30.32-47.19c15.48-41.24,7.99-87.38-8.92-126.91c-1.02-2.38-2.11-4.76-3.24-7.12 c1.11,1.93,2.19,3.88,3.29,5.82c15.3,39.03,26.55,81.82,17.6,123.79c-4.34,20.32-16.77,37.7-32.5,50.85 c-8.91,7.45-19.31,13.06-29.97,17.54c-1.25,0.53-2.51,1.01-3.77,1.47C518.73,679.69,527.89,673.73,536.12,666.14z M578.55,554.29 c-2.09-14.78-5.56-29.92-10.71-44.31c12.44,24.98,21.74,51.49,21.59,79.79c-0.18,33.41-17.34,61.33-44.5,79.84 c-7.88,5.37-16.29,9.7-25.02,13.25c7.3-3.57,14.21-7.73,20.39-12.17c16.3-11.67,28.9-28.21,35.56-47.11 C583.54,601.77,581.72,576.76,578.55,554.29z M426.03,700.27c-4.99,0.84-10,1.6-15.11,1.79c-9.35,0.34-18.64-0.62-27.83-2.18 c5.82-0.64,11.7-1,17.58-1.24C408.95,699.95,417.45,700.47,426.03,700.27z M395.56,706.92c-9.34-0.38-18.21-2.52-27.22-4.64 c3.17-0.72,6.37-1.28,9.58-1.74c10.81,2.67,21.84,3.69,33,3.59c4.06-0.03,8.49-0.17,12.95-0.58c-2.86,0.78-5.7,1.59-8.49,2.49 C408.8,706.65,402.29,707.19,395.56,706.92z M391.6,724.37c-1.57,0.86-3.15,1.7-4.66,2.63c-8.4,5.16-17.98,13.79-23.8,23.73 c10.63-23.62,32.25-35.32,56.38-42.65c1.05-0.23,2.09-0.47,3.12-0.74c0.2-0.05,0.34-0.17,0.45-0.3c7.81-2.22,15.83-4.03,23.78-5.68 c0.21,0.32,0.55,0.53,1.08,0.47c7.29-0.86,14.6-1.82,21.88-2.98c-3.61,1.06-7.18,2.29-10.68,3.67c-0.03-0.01-0.05-0.02-0.07-0.02 c-18.6-2.42-40.3,6.3-56.31,14.98C398.96,719.54,395.22,721.85,391.6,724.37z M412.94,715.27c5.74-2.57,11.67-4.72,17.72-6.45 c7.24-2.07,14.58-2.59,21.91-3.51c-2.46,1.13-4.89,2.33-7.29,3.6C434.51,709.76,423.5,711.88,412.94,715.27z M599.97,638.19 c-8.06,17.55-20.93,32.81-36.99,43.53c-19.58,13.08-42.43,13.98-65.09,16.45c-25.92,2.83-50.71,11.92-72.17,26.22 c6.8-5.09,14.04-9.63,21.68-13.5c22.33-11.33,46.11-13.39,70.52-16.61c19.57-2.58,36.98-8.89,52.31-21.46 c14.12-11.58,24.28-27.51,30.94-44.34c7.76-19.62,9.29-40.37,6.5-60.75c0.01,0,0.03,0,0.05,0.01c-0.18-1.43-0.34-2.87-0.49-4.31 c-0.07-0.01-0.14-0.02-0.21-0.03c-3.08-18.43-9.6-36.46-18.16-52.93c-10.26-19.73-24.2-36.9-38.81-53.53 c-13.15-14.96-26.52-29.93-36.12-47.32c-0.31-0.72-0.58-1.45-0.88-2.18c0.08,0.08,0.16,0.17,0.25,0.25 c9.03,12.87,20.85,24.39,32.57,35.6C592.65,498.45,632.3,567.8,599.97,638.19z M584.13,676.31c16.57-13.55,24.94-33.95,29.3-54.36 c8.65-40.49,1.45-83.7-16.98-120.44c-9.88-19.68-23.7-36.47-39.32-51.84c-0.31-0.3-0.61-0.6-0.92-0.9 c12.23,11.04,23.91,22.23,33.92,35.05c7.36,10.77,13.98,22,18.86,34.44c10.95,27.86,9.43,58.46,7.29,87.78 c-1.6,22.05-7.05,45.15-21.02,62.3c-6.49,6.51-14.02,11.95-21.99,16.5c-2.61,1.49-5.33,2.67-8.09,3.75 C571.86,685.15,578.24,681.13,584.13,676.31z M631.03,594.08c-0.3,2.15-0.61,4.29-0.93,6.42c-3.14,20.99-5.96,42.92-15.71,62.04 c-7.28,14.28-18.3,24.26-31.3,31.37c2.01-1.35,3.98-2.8,5.91-4.43c29.8-25.05,39.64-70.16,38.71-107.29 c-0.08-3.3-0.31-6.58-0.59-9.86c-0.07-0.11-0.12-0.24-0.14-0.39c-0.38-2.15-0.68-4.27-0.73-6.46c0-0.17,0.04-0.33,0.11-0.47 c-3.84-29.93-15.62-58.7-33.86-82.73c-2.99-4.56-6.13-9.01-9.34-13.38c3.98,2.45,7.62,5.19,10.97,8.15 c0.52,0.46,1.02,0.93,1.54,1.39C625.33,506.21,630.01,553.71,631.03,594.08z M611.76,495.23c8.9,11.01,15.83,23.58,19.34,38.91 c3.05,13.34,3.19,27.21,2.09,40.96c-0.96-17.53-4.25-35.08-9.05-51.47C621.24,513.73,617.14,504.04,611.76,495.23z M616.13,533.49 c2.58,8.02,4.62,16.21,6.12,24.49c0.35,1.91,0.62,3.85,0.9,5.79c0.3,0.2,0.52,0.52,0.52,0.99c0.02,1.84,0.16,3.66,0.07,5.49 c0.08,0.01,0.17,0.03,0.25,0.04c1.45,13.82,1.23,28.23-0.81,42.36c-1.34,7.19-2.64,14.25-5.29,21.38 c-2.35,6.32-5.64,12.37-9.45,18.05c5.19-11.77,8.06-24.77,9.61-37.16C621.35,588.66,622.52,559.68,616.13,533.49z M502.59,713.03 c-1.03,0.1-2.05,0.21-3.06,0.31c-0.33,0.03-0.59,0.19-0.76,0.4c-9.45,1.25-19.2,5.4-26.92,9.29c-8.4,4.22-17.02,10.3-23.8,17.63 c19.99-33.09,66.37-32.75,100.82-43.67c7.65-0.55,15.62-4.22,22.5-7.83c5.02-2.11,9.85-4.64,14.37-7.87 c4.67-3.34,8.68-7.28,12.17-11.62c0.98-0.99,1.93-1.99,2.87-3.01c4.21-4.56,8.25-10.05,11.82-16.05 c-5.1,11.64-11.86,22.41-20.45,31.65c-17.64,18.99-41.78,21.5-65.99,25.04C518.61,708.41,510.34,710.13,502.59,713.03z M565.91,706.47c-10.34,3.57-21.07,5.74-31.93,7.18c17.23-2.51,34.11-7.02,49.28-14.88C577.79,701.79,572,704.37,565.91,706.47z M616.08,667.22c-7.52,10.86-17.02,19.53-27.9,26.22c7.74-4.86,14.88-10.84,21.14-18.25c12.83-15.16,17.23-35.28,20.68-54.31 c3.9-21.5,7.45-43.26,6.95-65.18c-0.45-19.75-5.68-38.86-16.69-55.34c-10.65-15.95-26.04-28.25-41.17-39.7 c-1.66-1.25-3.34-2.52-5.05-3.81c-0.45-0.57-0.9-1.12-1.35-1.69c11.97,8.44,23.85,17,34.39,27.25c16.71,16.26,25.74,37.03,30,59.67 C644.83,583.26,640.32,632.17,616.08,667.22z M657.23,664.28c-5.69-2.01-12.26-2.23-18.21-3.06c-3.76-0.53-7.52-1.05-11.28-1.52 c15.32-24.91,22.99-54.83,23.41-83.96c9.06,2.21,18.03,4.75,26.92,7.54c-0.08,0.27-0.16,0.54-0.24,0.82 c-0.24,0.82,0.94,1.31,1.37,0.58c0.17-0.29,0.3-0.6,0.46-0.89c1.54,0.49,3.08,0.96,4.61,1.47c0,0.01-0.01,0.02-0.01,0.03 c-0.66,1.82,2.07,2.55,2.86,0.92c0.52,0.18,1.05,0.35,1.57,0.53C676.46,611.56,667.4,638.45,657.23,664.28z M875.03,653.52 c-3-0.49-4.19-3.52-6.59-4.87c-0.25-0.14-0.52-0.05-0.69,0.14c-9.07-8.21-23.27-7.11-34.75-6.52c-16.3,0.83-33.21,0.52-49.38,3 c-0.02-0.06-0.03-0.11-0.05-0.17c-0.51-1.77-1.2-3.48-1.89-5.18c-0.46-1.14-2.09-0.73-1.86,0.51c0.29,1.61,0.62,3.2,1.01,4.79 c0.05,0.22,0.12,0.45,0.18,0.67c-0.25,0.4-0.05,1.05,0.43,1.28c0.31,0.68,0.74,1.29,1.43,1.67c0.25,0.13,0.57,0.07,0.71-0.19 c0.24-0.43,0.32-0.86,0.35-1.3c13.06,0.65,26.42-0.8,39.45-1.43c13.78-0.66,28.27-3.02,40.25,4.07c0.06,0.07,0.11,0.14,0.22,0.17 c0.04,0.01,0.08,0.03,0.12,0.05c1.45,0.88,2.86,1.87,4.23,3.06c0.44,0.38,0.9,0.44,1.3,0.32c0.11,0.11,0.19,0.24,0.29,0.35 c-0.29,0.02-0.58,0.14-0.8,0.42c-0.08,0.11-0.17,0.22-0.25,0.33c-0.08-0.25-0.17-0.5-0.24-0.74c-0.08-0.26-0.25-0.46-0.45-0.61 c-0.13-0.18-0.33-0.26-0.56-0.25c-0.62-0.14-1.3,0.1-1.43,0.86c-0.16,0.91-0.31,1.81-0.47,2.72c-0.18,1.02,0.77,1.65,1.54,1.52 c0.39,0.59,1.26,0.87,1.86,0.44c0.77,0.76,2.46,0.45,2.43-0.95c-0.01-0.54-0.03-1.08-0.04-1.62c0.99,1.62,1.69,3.42,1.96,5.33 c-0.13,0.03-0.24,0.11-0.3,0.25c-2.94,6.77-15.68-1.1-20.72-1.86c-2.94-0.45-6.01-0.28-8.91,0.45c-5.62-0.72-11.27-1.17-16.76-1.64 c-12.21-1.03-24.73-1.38-36.92,0.13c-0.24-1.25-0.92-2.53-1.26-3.57c-0.27-0.81-1.62-0.72-1.55,0.21c0.15,1.9-0.36,4.8,1.54,5.97 c0.32,0.2,0.68,0.05,0.89-0.23c0.05-0.07,0.07-0.16,0.12-0.23c11.36,0.26,22.68,0.04,34.03,0.73c5.15,0.31,10.25,0.96,15.33,1.69 c0.17,0.1,0.37,0.15,0.59,0.1c0.01,0,0.03-0.01,0.04-0.01c6.43,0.94,12.85,2.01,19.31,2.77c0.08,0.18,0.24,0.33,0.5,0.36 c0.13,0.01,0.25,0.02,0.37,0.04c-0.03,0.78-0.07,1.56-0.08,2.34c-0.01,0.87,0.63,1.25,1.26,1.19c0.07,0.91,1.02,1.37,1.82,0.74 c0.77-0.6,1.39-1.04,1.92-1.92c0.12-0.2,0.21-0.41,0.3-0.63c0.11-0.07,0.19-0.16,0.27-0.27c0.51,0.38,0.98,0.87,1.42,1.52 c1.39,2.08,0.85,4.42-0.39,6.3c-0.07-0.02-0.13-0.06-0.21-0.07c-33.56-4.46-67.62-4.24-101.35-6.85 c-33.71-2.61-66.99-8.47-100.58-11.69c8.26-20,17.12-40.05,24.09-60.47c0.03,0.07,0.09,0.13,0.18,0.13 c22.45-0.2,45.02-3.37,67.36-5.47c11.2-1.05,22.74-3.1,33.71,0.31c7.6,2.36,13.88,8.05,19.45,13.93 c-6.65-0.79-13.32-0.97-19.86-0.52c-0.03-0.32-0.2-0.62-0.58-0.81c-1.71-0.84-3.55-1.99-5.42-2.61c0.16-0.14,0.34-0.27,0.5-0.4 c0.67-0.58-0.2-1.68-0.94-1.22c-2.99,1.89-5.77,4.25-8.56,6.42c-0.33,0.26-0.28,0.67-0.06,0.95c-3.64,0.9-7.19,2.05-10.62,3.45 c-0.88-1-2.33-1.94-3.68-1.95c-0.5-0.01-0.89,0.5-0.75,0.98c0.15,0.51,0.21,1.02,0.27,1.55c0.05,0.46,0.79,0.65,0.87,0.12 c0.03-0.23,0.07-0.45,0.11-0.67c0.31,0.18,0.61,0.38,0.89,0.64c0.6,0.56,1,1.28,1.28,2.04c0.27,0.74,1.4,2.81,2.28,1.32 c0.34-0.59,0.31-1.22,0.1-1.84c6.82-1.24,13.42-2.37,19.99-3.13c1.52,0.58,3.15,1.14,4.64,0.82c0.52-0.11,0.64-0.79,0.3-1.15 c-0.07-0.07-0.15-0.1-0.22-0.17c7.61-0.65,15.28-0.66,23.31,0.35c0.41,0.45,0.82,0.9,1.23,1.35c0.92,1.01,2.22,0.23,2.45-0.81 c0.68,0.11,1.35,0.27,2.02,0.39c0,0.24,0,0.49,0,0.73c0.01,1.57,2.42,1.57,2.44,0c0-0.09,0-0.17,0-0.26 c14.59,3.05,28.3,9.13,40.86,17.18c0.27,0.78,0.55,1.56,0.78,2.36c0.05,0.16,0.12,0.28,0.21,0.39c-9.28-5.47-21.01-5.83-32.11-5.69 c-20.3,0.25-40.93-0.2-61.16,1.71c-0.24-0.36-0.48-0.73-0.74-1.07c-0.69-0.91-2.57-0.41-2.04,0.86c0.53,1.28,1.17,2.64,1.99,3.77 c0.94,1.28,2.73,0.21,2.11-1.23c-0.08-0.18-0.19-0.35-0.28-0.53c15.85,0.95,31.9,0.29,47.76,0.05c16.54-0.25,36.78-2.95,49.18,9.98 c-0.15,1.28-0.04,2.38,0.65,3.6c0.16,0.28,0.59,0.28,0.74,0c0.29-0.5,0.45-0.99,0.56-1.47c0.85,0.77,2.23-0.01,2.42-1.01 c0.77,0.49,1.5,1.03,2.24,1.57c-0.07,0.11-0.12,0.24-0.15,0.4c-0.12,0.67-0.14,1.36-0.19,2.05c-0.07,0.19-0.09,0.4-0.05,0.63 c-0.02,0.19-0.06,0.38-0.09,0.56c-0.04,0.03-0.08,0.04-0.12,0.08c-0.81,0.81-0.87,1.76-0.51,2.57c-0.09,0.38-0.19,0.75-0.28,1.13 c-0.27,1.15,1.29,2.32,2.15,1.25c0.17-0.21,0.28-0.44,0.43-0.66c0.49,0.08,1,0.06,1.5-0.17c0.25-0.11,0.43-0.35,0.55-0.61 c0.2-0.16,0.39-0.35,0.5-0.64c0.23-0.81,0.64-1.74,0.66-2.61C880.65,648.91,880.63,654.43,875.03,653.52z M785.27,605.46 c-1.87,0.2-3.73,0.45-5.57,0.77c-0.73-0.18-1.46-0.33-2.2-0.44c1.26-0.88,2.51-1.76,3.72-2.69 C782.38,604.08,783.84,604.79,785.27,605.46z"/> <path d="M796.91,598.4c-0.14,0-0.14,0.22,0,0.22C797.05,598.61,797.05,598.4,796.91,598.4z"/> <path d="M852.41,635.23c-0.63-1.4-1.91-2.38-3.48-2.28c-0.13-0.27-0.26-0.53-0.37-0.78c-0.42-0.94-1.81-0.25-1.6,0.67 c0.27,1.17,0.42,2.98,1.58,3.6c0.35,0.19,0.72,0.02,0.9-0.26c0.01,0.01,0.02,0.01,0.03,0.02c0.03-0.06,0.04-0.13,0.06-0.19 c0.01-0.03,0.02-0.05,0.02-0.08c0.17-0.58,0.09-1.18-0.11-1.78c0.66,0.36,1.1,1.01,1.31,1.77c0.24,0.85-0.22,1.72,0.03,2.52 c0.06,0.2,0.25,0.37,0.48,0.36C852.87,638.73,852.89,636.3,852.41,635.23z"/> <path d="M849.12,649.92c-0.04-0.5-0.61-0.79-1.01-0.42c-0.15,0.14-0.32,0.26-0.48,0.39c-0.01-0.06-0.02-0.13-0.03-0.19 c-0.21-0.87-1.56-0.88-1.76,0c-0.18,0.8-0.23,1.59-0.21,2.42c0.01,0.87,1.26,1.59,1.89,0.78c0.17-0.22,0.29-0.47,0.43-0.71 c-0.02,1.02,0.07,2.02,0.85,2.49c0.19,0.12,0.44,0.08,0.6-0.08C850.51,653.5,849.23,651.23,849.12,649.92z"/> <path d="M838.03,667.98c-0.35-1.21-0.61-2.1-0.5-3.37c0.09-1.06-1.31-1.2-1.82-0.49c-0.71,0.99-0.67,2.38-0.26,3.48 c0.39,1.06,1.53,1.89,2.54,2.33c0.34,0.15,0.64,0.13,0.93-0.12C839.84,669,838.18,668.52,838.03,667.98z"/> <path d="M861.14,651.56c0.01,0.36,0.03,0.72,0.04,1.08c0.01,0.21,0.32,0.21,0.33,0c0.01-0.36,0.03-0.72,0.04-1.08 C861.55,651.3,861.13,651.3,861.14,651.56z"/> <path d="M858.09,658.45c-0.9,0-0.9,1.4,0,1.4C858.99,659.84,858.99,658.45,858.09,658.45z"/> <path d="M835.39,618.33c-0.37-0.6-1.01-1.1-1.77-1.04c-0.66,0.05-1.29-0.06-1.93-0.04c-0.97-1.25-1.97-2.48-3.25-3.44 c-0.78-0.59-1.48,0.5-1.18,1.18c0.72,1.64,1.91,3.04,3.03,4.42c0.42,0.52,1.29,0.43,1.73,0c0.81-0.8,1.48,0.04,2.27,0.35 C835.11,620.09,835.81,619.01,835.39,618.33z"/> </svg>