<svg xmlns="http://www.w3.org/2000/svg" version="1.1" id="Layer_1" x="0px" y="0px" style="enable-background:new 0 0 1000 1000;" viewBox="53.87 331.07 915.27 429.95"> <g> <path d="M261.62,658.7c-68.79-0.69-137.61-1.96-206.4-1.64c-1.78,0.01-1.77,2.71,0,2.75c68.48,1.55,137.02,1.7,205.53,2.12 C261.03,660.84,261.32,659.77,261.62,658.7z"/> <path d="M967.76,664.26c-89.25-0.81-178.5-1.64-267.75-2.46c-0.33,0.97-0.68,1.93-1.06,2.9c89.6,0.79,179.21,1.57,268.81,2.37 C969.57,667.08,969.56,664.28,967.76,664.26z"/> <path d="M568.68,426.65c-3.15-0.17-5.78,3.18-4.91,6.17c0.14,0.47,0.85,0.38,0.85-0.12c-0.01-2.25,0.82-4.1,3.15-4.73 c2.85-0.77,5.1,2.06,4.74,4.67c-0.1,0.7,0.95,1.03,1.09,0.3C574.24,429.63,572.03,426.83,568.68,426.65z"/> <path d="M570.3,433.25c-0.14-0.51-0.68-1-1.24-0.94c-0.26,0.03-0.53,0.05-0.79,0.08c-0.32,0.03-0.55,0.17-0.75,0.35 c-0.32-0.02-0.65,0.12-0.84,0.41c-0.64,0.95-0.63,2.07-0.71,3.18c-0.09,1.46-0.19,2.92-0.22,4.38c-0.02,0.78,0.66,1.41,1.42,1.42 l1.17,0.02c0.45,0.01,1.02-0.26,1.21-0.69C570.74,438.82,571.06,436.05,570.3,433.25z"/> <path d="M563.65,420.02c-0.23-0.64-1.13-0.27-0.86,0.36c0.29,0.66,0.54,1.36,0.9,1.99c0.21,0.38,0.79,0.12,0.69-0.29 C564.2,421.38,563.9,420.7,563.65,420.02z"/> <path d="M564.99,418.96c-0.16-0.16-0.37-0.02-0.39,0.16c-0.09,0.65,0.23,1.44,0.59,1.98c0.15,0.23,0.57,0.16,0.55-0.15 C565.7,420.28,565.48,419.46,564.99,418.96z"/> <path d="M566.71,417.56c-0.14-0.31-0.59-0.08-0.52,0.22c0.22,1.03,0.59,2.08,0.96,3.07c0.15,0.42,0.81,0.25,0.68-0.19 C567.51,419.62,567.17,418.54,566.71,417.56z"/> <path d="M569.38,418.98c-0.05-0.66-0.07-1.32-0.19-1.98c-0.07-0.39-0.63-0.26-0.65,0.09c-0.04,0.63,0.01,1.26,0.04,1.89 c0.03,0.56-0.02,1.13,0.18,1.66c0.1,0.28,0.53,0.33,0.61,0C569.51,420.09,569.41,419.54,569.38,418.98z"/> <path d="M571.06,417.21c-0.05-0.32-0.59-0.32-0.64,0c-0.12,0.83-0.16,1.69-0.1,2.53c0.04,0.54,0.8,0.54,0.84,0 C571.22,418.9,571.18,418.04,571.06,417.21z"/> <path d="M572.88,417.3c-0.01-0.3-0.47-0.39-0.54-0.07c-0.18,0.86-0.37,1.85-0.26,2.72c0.04,0.33,0.51,0.44,0.61,0.08 C572.94,419.18,572.92,418.17,572.88,417.3z"/> <path d="M574.56,417.97c-0.4,0.75-1.23,1.73-1.08,2.62c0.03,0.15,0.24,0.23,0.36,0.15c0.75-0.5,0.89-1.78,1.16-2.58 C575.08,417.89,574.68,417.73,574.56,417.97z"/> <path d="M575.83,419.34c-0.58,0.58-1.46,1.62-1.26,2.48c0.03,0.11,0.17,0.2,0.28,0.16c0.83-0.31,1.21-1.6,1.38-2.4 C576.28,419.35,576.01,419.16,575.83,419.34z"/> <path d="M534.09,438.26c-2.17-1.63-5.23-0.53-6.05,1.93c-0.13,0.4,0.5,0.67,0.69,0.29c0.76-1.51,2.16-1.8,3.48-1.42 c-2.46,3.9-2.96,9.85-1.1,14.08c0.17,0.4,0.89,0.21,0.83-0.22c-0.28-2.17-0.64-4.26-0.58-6.47c0.06-2.49,0.92-4.73,1.63-7.07 c0.63,0.33,1.2,0.79,1.6,1.37c1.38,1.98,1.11,4.67,0.83,6.92c-0.08,0.62,0.98,0.76,1.09,0.15 C537.11,444.27,537.23,440.62,534.09,438.26z"/> <path d="M680.7,599.63c-0.32-0.29-0.91,0.1-0.63,0.49c0.53,0.74,1.19,1.92,2.17,2.03c0.1,0.01,0.19-0.1,0.19-0.19 C682.44,601.01,681.34,600.21,680.7,599.63z"/> <path d="M682.4,602.69c-0.33-0.52-0.85-0.73-1.46-0.66c-0.32,0.04-0.57,0.43-0.28,0.68c0.45,0.41,0.99,0.6,1.58,0.37 C682.39,603.02,682.5,602.84,682.4,602.69z"/> <path d="M686.4,608.08c-0.1-0.17-0.22-0.28-0.36-0.37c0-0.07,0-0.14,0.01-0.21c0.07,0.01,0.16-0.01,0.19-0.08 c0.15-0.35,0.15-0.44,0.05-0.82c-0.13-0.53-0.99-0.28-0.81,0.22c0.01,0.03,0.02,0.05,0.03,0.07c-0.04,0.04-0.09,0.07-0.1,0.14 c-0.07,0.27-0.14,0.54-0.23,0.81c-0.08,0.24,0.09,0.47,0.31,0.55c0.29,0.09,0.51,0.11,0.8,0 C686.4,608.34,686.47,608.2,686.4,608.08z"/> <path d="M671.29,605.16c-0.47-0.38-1.06-0.47-1.64-0.58c-0.15-0.08-0.3-0.14-0.44-0.19c-0.27-0.09-0.5,0.24-0.36,0.47 c0.27,0.45,0.73,0.96,1.29,0.91c0.18-0.02,0.27-0.15,0.25-0.32c0-0.03-0.03-0.06-0.03-0.09c0.27,0.08,0.53,0.14,0.81,0.11 C671.3,605.45,671.42,605.26,671.29,605.16z"/> <path d="M674.54,599.47c-0.35-0.32-0.76-0.55-1.18-0.75c-0.42-0.2-0.79,0.44-0.37,0.63c0.46,0.2,0.93,0.37,1.43,0.42 C674.57,599.78,674.64,599.56,674.54,599.47z"/> <path d="M675.49,599.24c-0.2-0.33-0.71-0.03-0.52,0.3c0.18,0.31,0.33,0.52,0.61,0.74c0.12,0.1,0.28,0.01,0.26-0.15 C675.79,599.78,675.68,599.55,675.49,599.24z"/> <path d="M677.88,610.66c-0.36-0.64-0.85-0.8-1.46-1.17c-0.02-0.01-0.03,0-0.05-0.01c-0.11-0.11-0.22-0.21-0.33-0.32 c-0.29-0.3-0.85,0.11-0.59,0.46c0.37,0.49,0.67,1.09,1.3,1.23c0.1,0.02,0.2-0.04,0.24-0.13c0.18,0.11,0.38,0.21,0.64,0.25 C677.82,611.01,677.98,610.83,677.88,610.66z"/> <path d="M683,615.67c-0.01-0.1-0.06-0.2-0.17-0.22c-0.39-0.1-0.63-0.32-0.71-0.67c-0.24-0.57-1.06-0.22-0.78,0.33 c0.09,0.18,0.18,0.36,0.27,0.55c0.09,0.17,0.28,0.21,0.46,0.19l0.44,0.04c-0.01,0.16,0,0.22,0.05,0.48c0.04,0.2,0.36,0.2,0.41,0 C683.04,616,683.04,616.03,683,615.67z"/> <path d="M682.36,621.81c-0.25,0-0.25,0.38,0,0.38C682.6,622.19,682.6,621.81,682.36,621.81z"/> <path d="M659.04,600.22c-0.31-0.61-2.21-0.8-1.95-1.72c0.26-0.91-1.34-0.55-0.84,0.11c0.44,0.57,0.51,1.27,1.06,1.8 c0.43,0.42,1.19,0.73,1.67,0.25C659.1,600.54,659.11,600.37,659.04,600.22z"/> <path d="M587.75,559.49c-1.14-2.94-4.51-5.04-7.48-3.49c-0.37,0.19-0.11,0.77,0.28,0.66c0.34-0.09,0.67-0.13,0.99-0.15 c-0.04,0.06-0.06,0.14-0.04,0.23c0.89,4.46-0.91,8.87-4.67,11.44c-0.27,0.18-0.03,0.61,0.26,0.44c4.15-2.45,6.2-7.36,5.03-12.04 c-0.01-0.02-0.03-0.03-0.04-0.05c2.37,0.15,4.19,2.2,4.83,4.53c0.75,2.74-0.57,5.07-2.13,7.17c-0.37,0.49,0.36,1.22,0.85,0.85 C588.49,566.91,588.98,562.68,587.75,559.49z"/> <path d="M721,609.42c-23.78-16.4-53.33-37.02-83.83-28.94c-0.14,0-0.28,0.03-0.43,0.11c-0.27,0.07-0.54,0.14-0.82,0.22 c-10.09-7.88-25.03-11.9-37.54-9.08c-0.27-0.68-0.68-1.31-1.28-1.86c-2.78-2.54-6.16-2.47-8.86,0.17c-0.3-0.12-0.6-0.23-0.91-0.32 c-0.75-0.23-1.09,0.98-0.32,1.18c1.66,0.44,3.77,0.94,3.37,3.56c-0.28,1.85-2.42,3.71-3.57,5.13c-0.96,1.18-1.92,2.36-2.9,3.52 c-0.79,0.98-1.78,1.71-2.97,2.19c-2.84-0.56-3.74-1.84-2.77-3.8c0.03,0.12,0.08,0.23,0.18,0.33c0.55,0.53,1.1,1.06,1.66,1.6 c0.32,0.31,0.87,0.22,1.15-0.07c0.27,0.13,0.54,0.28,0.82,0.39c0.59,0.24,0.96-0.6,0.58-1c-0.8-0.84-1.59-1.7-2.42-2.51 c-0.41-0.4-0.93,0.11-0.72,0.55c-0.06-0.03-0.12-0.07-0.18-0.1c-0.21-0.12-0.43-0.12-0.61-0.04c1.18-1.94,3.53-3.53,4.9-5.29 c0.67-0.87,1.19-1.78,1.62-2.73c0.13-0.04,0.27-0.06,0.4-0.12c0.4-0.16,0.53-0.83,0.04-0.97c0.26-0.68,0.5-1.37,0.72-2.08 c0.11-0.37-0.42-0.49-0.56-0.16c-0.31,0.73-0.66,1.44-1.04,2.14c-1.2-0.05-2.42,0.2-3.62,0.33c-1.72,0.19-3.47,0.34-5.15,0.76 c-0.5,0.12-0.37,0.84,0.12,0.86c1.68,0.07,3.36-0.12,5.04-0.27c0.88-0.08,1.8-0.1,2.69-0.21c-1.11,1.68-2.42,3.24-3.93,4.58 c-1.56,1.38-2.83,2.6-3.39,4.65c-0.9,3.24,2.11,4.86,4.83,4.4c2.13-0.36,3.71-2.77,4.93-4.29c1.67-2.08,3.45-4.14,4.84-6.42 c1.6-2.64,0-4.45-2.14-5.5c3.59-2.64,8.16-0.65,8.52,3.86c0.2,2.52-1.77,5.19-3.14,7.17c-1.22,1.76-2.84,3.32-4.54,4.61 c-2.44-0.57-3.03-1.55-1.79-2.92c0.62-1.13,1.27-2.25,1.89-3.39c0.32-0.59-0.56-1.11-0.9-0.53c-0.95,1.64-5.71,7.55-1.55,8.69 c3.61,0.99,7.14-4.26,8.82-6.71c1.48-2.17,3-5.59,2.44-8.43c6.66-0.37,12.95-0.32,19.49,1.28c6.13,1.5,11.46,4.43,16.63,7.88 c-12.6,7.92-25.09,16.02-37.43,24.34c-11.67,7.87-23.76,15.5-34.8,24.3c7.92-36.45,17.26-72.76,23.72-109.47 c2.4-13.61-0.01-26.21-11.57-34.65c-3.45-2.52-7.22-4.18-11.15-5.22c6.51-3.89,11.04-11.26,11.56-18.77 c2.2-0.08,4.42-0.91,6.21-2.17c0.44,0.12,0.97-0.18,0.86-0.69c0.11-0.09,0.24-0.18,0.34-0.28c0.68-0.63-0.1-1.58-0.84-1.36 c-2.79-8.73-2.81-17.59-0.08-26.43c2.1-6.8,8.22-12.66,7.65-20.1c-0.01-0.11-0.07-0.19-0.14-0.25c5.85-16.6,7.55-35.77-2.12-51.18 c-9.5-15.13-27.82-23.22-44.6-26.86c-35.85-7.76-73.22,8.07-93.93,37.81c-0.49-0.33-1.22-0.32-1.68,0.34 c-0.19,0.26-0.34,0.55-0.52,0.81c-0.06-0.97-1.38-1.82-2.37-0.96c-4.05,3.56-7.13,8.36-8.68,13.53c0.78-5,3.03-9.55,7.68-12.6 c0.53-0.35,0.35-1.24-0.33-1.23c-1.63,0.03-2.96,0.62-4.07,1.53c0.45-0.61-0.44-1.47-1.05-1.04c-1.01,0.71-1.89,1.51-2.71,2.37 c-43.33-3.05-81.58,32.65-86.64,74.73c-3.15,26.19,8.7,53.28-4.48,78.09c-7.47,14.06-20.51,22.86-34.89,29.17 c-0.83,0-1.65-0.01-2.49-0.05c-0.73-0.04-0.72,1.02-0.05,1.13c-3.44,1.43-6.94,2.72-10.44,3.92c-0.18-0.03-0.35-0.05-0.53-0.09 c-0.43-0.09-0.73,0.22-0.8,0.55c-0.07,0.01-0.14,0.02-0.2,0.02c-0.1,0.01-0.17,0.07-0.23,0.12c-4.41,1.48-8.82,2.82-13.1,4.1 c-0.17-0.07-0.35-0.13-0.52-0.2c-0.67-0.26-1.14,0.18-1.26,0.73c-0.45,0.13-0.91,0.27-1.36,0.4c-1.33,0.39-0.76,2.47,0.57,2.08 c0.83-0.24,1.67-0.49,2.5-0.74c20.99,8.03,42.9,15.73,65.56,10.68c20.93-4.67,32.22-20.56,37.25-40.42 c6.5-25.66,10.82-52.06,16.16-77.99c4.68-22.74,11.06-50.11,35.89-56.57c0.42,0.21,0.95,0.05,1.24-0.32 c0.05-0.01,0.09-0.03,0.14-0.04c0.14,0.23,0.25,0.47,0.4,0.71c0.13,0.21,0.33,0.31,0.53,0.34c0,0.02,0,0.04,0,0.07 c0.01,0.38,0.16,0.66,0.36,0.89c-2.15,19.6,7.72,39.32,23.45,50.81c7.39,5.4,16.11,8.4,25.1,9.29 c-4.58,6.11-10.02,11.21-16.38,15.48c-4.84,3.24-10.18,5.12-15.45,7.34c-2.24-1.16-4.44-2.41-6.6-3.73 c-6.28-3.87-12.42-7.42-19.97-7.55c-14.48-0.25-22.44,15.7-27.34,26.77c-7.65,17.29-14.97,34.74-22.06,52.27 c-17.87,44.17-35.04,89.27-48.11,135.12c-0.26,0.91,1.1,1.26,1.4,0.39c12.84-37.08,24.98-74.3,39.22-110.89 c7.36-18.91,15.03-37.71,22.99-56.38c3.54-8.3,7.06-16.63,10.87-24.82c4.12-8.85,9.99-17.11,19.81-19.87 c9.14-2.57,18.12,4.45,25.45,8.87c0.56,0.34,1.14,0.65,1.72,0.97c-0.09,0.04-0.17,0.07-0.26,0.11c-0.36,0.16-0.19,0.79,0.2,0.75 c0.42-0.04,0.85-0.12,1.27-0.18c6.55,3.46,13.63,5.65,20.96,6.81c17.65,2.78,34.22-3.98,50.63-9.44 c17.62-5.87,38.97-9.28,53.25,5.47c7.21,7.46,7.12,18.32,5.65,27.88c-1.52,9.86-4.11,19.62-6.21,29.37 c-5.92,27.52-11.66,55.08-17.72,82.57c-0.03,0.03-0.06,0.05-0.09,0.07c-0.28,0.23-0.26,0.56-0.1,0.81 c-0.28,1.29-0.56,2.58-0.85,3.87c-15.37,5.43-30.8,9.32-46.82,12.22c7.1-19.69,11.9-42.02,10.77-63.03c-0.06-1.12-1.66-1.11-1.74,0 c-1.55,21.7-4.17,42.11-11.22,62.82c-0.2,0.58,0.1,1,0.53,1.19c-0.01,0.47,0.28,0.96,0.82,0.9c2.33-0.27,4.66-0.59,6.98-0.95 c-1.18,4.5-0.98,9.01,0.31,13.14c-3.61,15.25-5.83,30.96-8.63,46.37c-0.21-0.03-0.44-0.03-0.67,0.07 c-20.42,8.72-40.96,16.9-62.1,23.72c-10.23,3.3-20.57,6.26-30.96,9.01c-10.31,2.72-21.21,4.33-31.23,7.96 c-0.47,0.17-0.43,0.95,0.12,0.92c9.91-0.62,19.88-3.7,29.47-6.15c11.16-2.85,22.22-6.08,33.2-9.57 c20.9-6.63,41.62-14.27,61.57-23.41c18.04,10.26,37.56,18.41,56.69,26.4c19.67,8.22,40.05,16.84,60.7,22.27 c1.29,0.34,1.73-1.49,0.54-1.95c-19.36-7.58-39.22-13.76-58.49-21.66c-19.37-7.93-37.97-17.34-57.02-25.93 c0.05-0.1,0.11-0.19,0.14-0.32c2.66-14.7,5.96-29.47,8.05-44.3c3.42,7.05,10.12,12.47,18.35,13.87c8.72,1.49,17.57-1.73,25.22-5.63 c9.37-4.78,17.98-10.86,27.44-15.52c19.3-9.52,40.3-15.6,61.65-18.15c8.82-1.05,17.91-1.34,25.61-6.3 c6.48-4.17,10.21-11.67,10.77-19.2c0.02-0.31-0.08-0.54-0.25-0.69c0.39-1.37,0.79-2.74,1.16-4.12c0.07-0.27-0.09-0.55-0.35-0.62 c-0.17-0.05-0.32-0.06-0.47-0.08c0.91-2.03,1.62-4.13,2.07-6.25c0.04-0.02,0.08-0.05,0.11-0.09c1.6-2.03,2.03-4.36,1.25-6.84 c-0.07-0.23-0.35-0.44-0.6-0.34c-2.09,0.85-3.98,2.14-5.55,3.73c0.62-2.05,1.06-4.15,1.22-6.2c0.27,0.04,0.58-0.1,0.59-0.46 c0.01-1.01,0.01-2.03,0.02-3.04c11.11,5.76,21.53,12.9,31.82,19.96C721.05,611.39,721.85,610,721,609.42z M349.53,474.05 c-2.37-25.8,4.1-50.77,21.27-70.55c15.95-18.36,38.93-26.82,62.62-28.35c-0.52,0.67-0.99,1.38-1.4,2.11 c-35.34,0.04-66.32,24.5-75.53,58.4c-5.33,19.59-3.26,42.36-5.35,63.48C351.18,490.91,350.31,482.47,349.53,474.05z M337.42,538.35 c0.18-0.19,0.34-0.39,0.52-0.58c-2.77,3.64-6.08,7.06-10.09,10.19c-0.04,0.03,0.01,0.1,0.05,0.07c6.96-4.85,11.94-10.85,15.55-17.6 c4.09-6.68,6.17-13.85,7.08-21.31c3.75-20.11,2.03-42.71,4.53-61.21c2.5-18.54,10.46-35.45,23.93-48.52 c14.01-13.59,33.14-20.59,52.46-21c-0.19,0.38-0.39,0.75-0.56,1.13c-16.31,0.15-32.3,7.39-44.72,17.63 c-14.86,12.25-23.03,29.3-26.33,48.01c-3.91,22.16-1.82,44.93-7.41,66.87c-3.7,14.49-12.15,28.61-24.86,36.35 c-1.73,0.89-3.52,1.69-5.37,2.36C327.7,547.3,332.83,543.26,337.42,538.35z M430.99,398.12c-5.65,2.1-10.6,4.91-14.96,8.27 c4.54-3.59,9.43-6.74,14.57-9.39C430.72,397.38,430.84,397.76,430.99,398.12z M430.46,380.64c-0.16,0.46-0.31,0.93-0.44,1.41 c-0.06-0.1-0.14-0.17-0.28-0.15c-15.68,1.74-30.68,10.28-42.2,20.73c-13.26,12.03-21.45,27.81-25.15,45.21 c-4.25,19.98-3.1,40.69-7.61,60.61c3.39-15.35,3.24-31.59,4.39-47.11c1.59-21.45,6.77-41.68,21.9-57.62 C394.22,389.87,411.75,382.5,430.46,380.64z M315.42,554.64c5.07-1,9.74-2.99,13.95-5.7c9.38-5.43,16.74-14.93,21.17-24.34 c8.77-18.61,8.55-40.02,10.51-60.07c1.11-11.45,2.93-22.92,7.53-33.54c3.58-8.26,8.79-15.8,14.78-22.49 c12.43-13.89,28.64-21.59,46.47-25.86c0.03-0.01,0.03-0.03,0.05-0.04c-0.06,0.25-0.13,0.51-0.19,0.76 c-16.45,2.38-31.86,12.19-43.06,24.14c-13.41,14.31-19.45,32.44-22.4,51.49c-3.34,21.52-3.46,43.79-12.19,64.11 c-6.81,15.87-20.62,29.52-37.77,32.09C314.67,554.99,315.05,554.83,315.42,554.64z M411.14,392.91c-0.66,0.31-1.32,0.64-1.97,0.98 c-9.55,4.78-18.43,10.66-25.57,18.88c11.7-14.8,28.01-23.61,45.95-28.68c-0.07,0.36-0.11,0.72-0.16,1.08 C423.26,387.57,417.09,390.05,411.14,392.91z M429.24,386.61c-0.02,0.21-0.04,0.43-0.05,0.64c-1.02,0.17-2.03,0.36-3.04,0.58 C427.18,387.42,428.21,387.02,429.24,386.61z M376.77,423.11c-6.89,14.12-7.42,31.25-9.37,46.52c-2.64,20.59-3.11,43.8-14.21,62.01 c-6.9,11.33-18.07,19.05-30.51,22.76c10.38-3.85,19.29-11.87,25.38-21.09c11.24-17.02,13.18-38.54,15.35-58.27 C365.4,456.97,368.08,438.96,376.77,423.11z M308.44,557.93c15.5,0.14,30.46-7.28,40.77-18.72c12.79-14.19,14.81-33.99,17.14-52.12 c1.43-11.11,2.86-22.22,4.29-33.33c1.48-11.45,2.95-22.98,8.81-33.15c3.57-6.21,8.36-11.27,13.85-15.57 c-2.7,2.54-5.2,5.29-7.44,8.25c-12.95,17.19-15.24,38.64-16.41,59.47c-1.28,22.73-2.12,47-16.67,65.79 c-12.09,15.63-30.79,19.12-49.16,21.41C305.25,559.32,306.85,558.63,308.44,557.93z M348.37,545.09 c15.44-13.8,19.67-35.8,21.29-55.44c1.92-23.28,0.8-47.7,12.74-68.69c9.72-17.09,27.52-28.89,46.77-32.14 c0.01,0.91,0.08,1.81,0.18,2.71c-16.34,3.71-31.5,14.8-41.5,27.97c-5.28,6.95-9.28,14.58-12.11,22.83 c-3.47,10.12-4.13,20.85-4.44,31.46c-0.33,11.57-0.06,23.27-1.92,34.73c-1.83,11.25-6.39,21.72-13.5,30.62 c-12.84,16.09-33.38,24-53.55,22.34C318.82,560.18,335.9,556.23,348.37,545.09z M297.53,562.24c19.16,2.99,38.77-2.84,53.03-16.13 c15.49-14.44,20.19-34.33,21.04-54.78c0.5-12.13,0.26-24.21,2.14-36.25c1.57-10.06,5.24-19.5,10.6-28.14 c10.55-17.01,26.48-28.17,45.14-34.52c0.07,0.49,0.13,0.98,0.24,1.47c-0.01,0-0.02,0-0.03,0c-17.48,5.57-32.18,17.45-41.3,33.38 c-11.13,19.45-12.16,42.82-14.94,64.52c-2.85,22.24-8.54,45.74-26.59,60.68c-16.05,13.28-38.39,13.39-58.35,12.77 C291.53,564.31,294.54,563.3,297.53,562.24z M284.17,566.59c0.43-0.13,0.87-0.27,1.3-0.4c19.29,1,39.87,1.32,57.01-8.8 c17.21-10.16,25.59-30.02,29.66-48.69c4.99-22.9,4.4-46.75,12.35-69.03c7.49-20.99,24.4-37.46,45.58-44.39 c0.06,0.22,0.13,0.43,0.19,0.65c-17.13,8.61-31.16,22.51-39.81,39.65c-10.6,21-11.09,45.52-14.96,68.29 c-3.7,21.8-11.78,42.93-30.63,55.85c-16.38,11.23-36.92,13.77-55.86,8.68C287.37,567.79,285.76,567.19,284.17,566.59z M310.72,574.88c-0.37-0.04-0.73-0.07-1.08-0.12c-0.67-0.09-1.37-0.21-2.06-0.31c-3.64-0.98-7.25-2.1-10.82-3.3 c14.79,2.94,30.64-0.24,43.82-7.36c18.34-9.9,28.27-27.76,33.42-47.35c6.23-23.69,5.47-48.63,13.98-71.83 c5.03-13.73,13.76-25.93,24.77-35.49c-21.77,19.5-27.12,53.98-31.47,81.87c-3.16,20.21-7.34,40.81-18.8,58.14 c-11.14,16.86-30.79,28.42-51.3,25.49C310.94,574.58,310.79,574.71,310.72,574.88z M327.05,577.86 c12.64-0.93,24.64-7.18,33.37-16.71c8.06-8.8,13.4-20.08,17.07-31.85c-1.97,7.85-4.42,15.52-7.89,22.71 c-6.81,14.11-19.44,23.11-34.11,25.89C332.69,578.06,329.87,578.03,327.05,577.86z M395.03,473.42 c-2.72,13.28-5.44,26.56-8.17,39.84c-2.33,11.35-4.2,22.93-8.01,33.91c-2.04,5.87-5.05,10.94-8.9,15.21 c9.79-13.36,12.43-32.1,15.74-47.7c3.63-17.1,6.81-34.36,11.25-51.27C396.33,466.76,395.71,470.11,395.03,473.42z M403.13,435.92 c-1.45,4.62-2.6,9.36-3.61,14.14c-2.34,7.01-4.11,14.24-5.76,21.41c-2.82,12.19-5.26,24.47-7.86,36.71 c-4.39,20.69-6.71,45.85-23.29,60.65c-2.97,2.07-6.23,3.83-9.77,5.25c-2.87,1.15-5.78,2.01-8.71,2.63 c8.28-2.96,15.77-8.26,21.07-15.24c11.48-15.12,14.12-34.93,17.96-53c4.35-20.46,7.94-41.27,13.42-61.47 c2.66-9.78,6.59-19.13,12.65-27.31c2.4-3.24,5.14-6.13,8.11-8.77C410.57,417.8,405.83,427.3,403.13,435.92z M399.14,436.1 c-7.6,18.8-10.41,39.75-14.65,59.48c-0.63,2.93-1.22,5.9-1.8,8.89c-0.07,0.03-0.12,0.08-0.15,0.17 c-5.12,18.52-8.34,37.18-20.48,52.76c-11.76,15.09-29.6,21.55-48.16,18.57c-0.08-0.02-0.15-0.03-0.23-0.05 c0.03-0.05,0.04-0.07,0.04-0.13c15.91,2.08,31.46-5.8,42.5-16.94c14-14.13,20.06-34.35,23.87-53.34 c4.29-21.37,5.91-43.32,13.45-63.93c6.64-18.14,19.47-35.24,38.01-42.18c0.11,0.24,0.25,0.46,0.37,0.7 c-0.1-0.07-0.23-0.11-0.37-0.05C416.14,406.96,405.35,420.76,399.14,436.1z M425.37,404.73c2.12-1.42,4.31-2.77,6.54-4.03 c0.12-0.07,0.16-0.16,0.17-0.26c0.25,0.49,0.48,0.99,0.77,1.45C430.19,402.46,427.7,403.45,425.37,404.73z M433.67,398.89 c-3.31-7.2-2.52-13.82,0.8-20.27c-0.32,0.83-0.62,1.66-0.88,2.43C431.68,386.65,431.83,393.17,433.67,398.89z M583.97,359.57 c7.04,9.36,8.18,19.78,7.16,30.37c0.53-9.24-0.91-18.36-6.39-26.38c-4.18-6.11-10.42-10.62-16.48-14.69 c-7.06-4.74-14.3-9.54-22.38-12.35c-1.77-0.62-3.6-1.09-5.47-1.46C556.98,337.97,573.71,345.93,583.97,359.57z M536.68,334.48 c-13.21-1.53-27.88,2.05-39.81,5.96c-12.65,4.15-24.88,10.52-35.37,18.85C481.24,340.1,508.7,330.75,536.68,334.48z M494.71,342.66 c14.74-5.38,32.41-9.08,47.96-5.61c7.93,1.77,14.92,6.56,21.65,10.89c1.65,1.06,3.29,2.14,4.91,3.26c-6.54-4.04-14-6.94-21.04-9.55 c-7.78-2.89-15.91-4.73-24.23-4.82c-8.36-0.09-16.58,2.34-24.27,5.41c-14.18,5.67-27.66,13.54-41.09,20.98 C469.62,354.58,481.46,347.5,494.71,342.66z M454.43,366.97c0.13-0.07,0.27-0.14,0.4-0.21c13.82-1.36,25.17-10.37,37.35-16.23 c14.41-6.94,31.01-8.52,46.64-5.64c6.45,1.19,13.14,3.3,19.37,6.35c-4.84-2.15-9.94-3.72-14.8-4.83 c-14.03-3.21-28.94-2.08-42.46,2.72c-7.58,2.69-14.55,6.88-21.66,10.59c-8.14,4.26-16.32,7.1-25.46,8.13 c-0.09,0.01-0.15,0.05-0.2,0.1C453.88,367.62,454.16,367.3,454.43,366.97z M453.58,368c-0.12,0.18-0.05,0.45,0.23,0.47 c13.77,0.88,26.51-7.88,38.25-13.84c13.39-6.79,28.02-9.58,42.97-8.05c14.51,1.48,31.06,7.51,39.92,19.66 c5.41,7.42,7,16.27,6.91,25.25c-0.53-7.37-2.77-14.56-6.99-21.04c-6.86-10.52-18.67-17.42-30.68-20.29 c-14.44-3.45-29.72-0.52-43.17,5.17c-15,6.35-30.86,20.52-48.06,13.48C453.17,368.54,453.37,368.27,453.58,368z M578.49,368.68 c-0.76-1.46-1.64-2.83-2.6-4.14c0.89,1.04,1.74,2.1,2.52,3.22c6.93,9.94,8.26,23.12,4.46,34.49 C584.31,390.81,583.91,379.17,578.49,368.68z M450.8,371.67c1.57,0.84,3.14,1.53,4.71,2.1c-1.62-0.38-3.25-0.82-4.88-1.34 c-0.03-0.01-0.06-0.01-0.09-0.01c-0.01-0.05-0.04-0.08-0.05-0.13c-0.01-0.04-0.04-0.07-0.06-0.11 C450.56,372.01,450.68,371.84,450.8,371.67z M562.09,380.4c-7.17-8.01-17.81-11.73-28.22-12.95c-8.74-1.02-17.55,0.05-26.19,1.81 c-3.22,0.39-6.43,0.92-9.59,1.57c8.3-3.04,16.46-6.51,25.21-8.13c27.05-5.02,51.04,17.48,48.98,44.34c0.07-1.47-0.06-2.9-0.34-4.31 C571.22,394.43,567.75,386.72,562.09,380.4z M570.09,397.44c-0.69-1.38-1.53-2.69-2.46-3.95c-6.62-11.34-18.56-19.49-31.04-22.84 c-4.51-1.21-9.22-1.85-14.01-2.05c11.12-0.69,22.48,1.09,32.04,7.06C562.45,380.55,567.75,388.61,570.09,397.44z M533.89,360.92 c-13.43-1.06-26.3,5.23-38.57,9.72c-7.29,2.67-14.6,4.29-21.96,4.69c16.12-2.24,32.27-12.45,47.7-15.53 c15.05-3,27.51,3.53,39.87,11.28c6.72,4.22,11.17,8.88,12.79,16.83c0.87,4.27,0.57,8.68-0.11,13.03 C572.29,379.94,555.65,362.65,533.89,360.92z M475.87,376.33c-0.36,0.06-0.72,0.13-1.07,0.19c-5.95,0.97-20.04,3.9-23.72-2.81 C459.2,376.29,467.55,377.1,475.87,376.33z M449.22,373.92c0.09-0.13,0.18-0.26,0.27-0.39c3.43,8.85,18.67,5.3,25.64,4.2 c8.89-1.4,17.59-3.72,26.36-5.7c10.52-1.83,21-2.96,31.99-0.87c11.1,2.12,20.15,7.69,27.39,15.46c-0.23-0.18-0.46-0.37-0.69-0.55 c-9.65-7.24-20.82-11.8-32.77-13.45c-12.2-1.68-24.56,0.43-36.51,2.84c-6.56,1.32-13.08,2.79-19.67,3.96 c-7.04,1.25-19.46,3.89-22.31-5.19C449.03,374.15,449.13,374.05,449.22,373.92z M447.66,374.93c0.39,1.19,0.94,2.19,1.59,3.05 c-0.72-0.56-1.43-1.16-2.14-1.8C447.3,375.76,447.47,375.35,447.66,374.93z M438.01,399.5c-1.97-9.78-0.53-18.69,7.31-26.04 C440.57,381.19,438.35,390.44,438.01,399.5z M447.8,400.22c0.03,0.07,0.05,0.15,0.08,0.23c0.32,0.83,0.72,1.6,1.2,2.32 c0.49,1.01,0.99,1.99,1.52,2.88c4.3,12.47,15.78,21.3,28.02,25.35c8.42,2.78,17.61,3.12,26.37,2.26c7.56-0.74,16.45-4.61,24-2.35 c-1.59,0.98-2.97,2.44-4.12,4.27c-17.84,6.26-37.4,4.3-53.53-5.61c-6.7-4.11-12.37-9.65-17.05-15.92c-0.3-0.65-0.59-1.29-0.9-1.93 c-0.07-0.14-0.29-0.04-0.24,0.1c0.05,0.15,0.1,0.3,0.14,0.45c-0.15-0.21-0.31-0.41-0.45-0.62c-3.49-4.99-5.37-13.1-11.6-15.26 c0.09-0.75,0.23-1.48,0.34-2.21C444.55,394.86,446.32,397.4,447.8,400.22z M447.57,393.89c4.47,7.19,10.35,13.77,17.34,18.35 c-1.77-0.84-3.53-1.72-5.25-2.67c-5.43-2.98-9.61-6.61-11.32-12.73C448.07,395.85,447.83,394.86,447.57,393.89z M454.73,423.85 c2.66,8.25,6.81,14.63,14.49,18.91c15.79,8.8,36.5,8.21,52.81,1.3c-0.2,1.45-0.3,2.93-0.3,4.37c-8.96,3.31-17.86,6.54-27.51,6.99 c-10.32,0.48-20.59-3.29-28.62-9.67c-7.7-6.12-12.43-14.79-14.98-24.15c-1.83-6.72-3.57-14.89-9.79-18.92 c0-0.52,0.03-1.02,0.05-1.52C449.4,405.91,451.91,415.08,454.73,423.85z M440.91,400.58c0.05-1.1,0.12-2.19,0.23-3.27 c3.11,1.5,4.78,4.71,6.29,7.85C445.71,403.22,443.59,401.65,440.91,400.58z M451.91,430.01c3.26,7.86,9.07,14.45,15.99,19.28 c16.64,11.61,36.4,7.67,53.88,0.53c0.07,1.22,0.23,2.38,0.48,3.43c-9.39,2.96-19.01,4.85-28.85,5.66 c-5.32,0.43-10.63,0.45-15.83-0.84c-5.33-1.32-9.92-4.86-14.1-8.24c-7.69-6.24-14.6-12.44-17.16-22.36 c-1.91-7.39-1.71-15.73-6.05-22.27c0.34-0.22,0.58-0.6,0.57-1.14c0-0.06,0-0.11,0-0.17C448.02,410.82,448.19,421.03,451.91,430.01z M522.25,442.72c-0.05,0.01-0.1,0.01-0.15,0.03c-17.66,7.75-41.71,8.33-57.41-4.31c-7.05-5.67-8.76-16.01-12.27-24.67 c0.81,1.15,1.67,2.26,2.55,3.36c4.41,11.29,11.71,20.61,23.8,24.65c13.25,4.42,30.96,4.28,44.04-1.59 C522.6,441.01,522.4,441.85,522.25,442.72z M503.22,443.2c-7.65,0.64-15.42-0.17-22.84-2.09c-7.41-1.92-13.57-5.93-18.17-12.04 c-2.25-2.99-3.88-6.34-5.4-9.74c4.81,5.45,10.65,9.97,16.98,13.51c15.16,8.48,33.7,9.61,50.07,4.25c-0.22,0.5-0.42,1.06-0.61,1.63 C516.56,440.66,510.28,442.61,503.22,443.2z M441.71,393.29c0.11-0.65,0.24-1.29,0.37-1.94c1.19,0.76,2.25,1.66,3.23,2.73 c0.58,0.64,0.99,1.4,1.39,2.15c0.05,0.22,0.1,0.45,0.16,0.67C445.58,395.1,443.91,393.76,441.71,393.29z M442.24,390.49 c0.19-0.91,0.4-1.82,0.65-2.71c1.79,1.7,2.63,3.86,3.23,6.12C445.04,392.56,443.71,391.41,442.24,390.49z M464.09,455.27 c-16.79-10.56-24.75-30.1-24.18-49.28c3.8,8.52,3.56,17.84,6.68,26.59c3.04,8.53,11.3,14.78,18.24,20.07 c8.39,6.39,16.58,8.29,27.02,7.65c10.44-0.63,20.76-2.74,30.73-5.88c0.08,0.24,0.16,0.49,0.25,0.72 C504.97,466.39,482.07,466.58,464.09,455.27z M531.24,482.91c-19.58,5.34-37.26,14.45-58.16,11.16c-5.57-0.87-10.8-2.7-15.8-5.09 c12.72-3.25,24.38-13.68,31.74-23.74c12.06,0.75,24.43-2.32,34.58-8.65c2.18,3.45,5.81,4.89,9.39,2.06 c0.56-0.45-0.17-1.38-0.76-0.99c-3.8,2.52-5.93,0.66-7.08-2.04c0.13-0.09,0.27-0.16,0.4-0.25c0.87-0.59,0.05-2.02-0.83-1.42 c-0.04,0.03-0.08,0.05-0.12,0.08c-0.02-0.08-0.03-0.15-0.05-0.23c0.25-0.08,0.49-0.15,0.74-0.24c0.74-0.25,0.42-1.42-0.32-1.17 c-0.23,0.08-0.45,0.14-0.68,0.22c-0.21-1.15-0.31-2.23-0.33-3.03c-0.06-3.22,0.36-6.6,1-9.74c0.66-3.22,2.5-5.84,5.17-7.76 c0.25-0.18,0.5-0.31,0.74-0.45c0.3,0.14,0.61,0.26,0.9,0.43c0.64,0.35,1.21-0.63,0.57-0.98c-0.04-0.02-0.09-0.04-0.13-0.06 c5.5-1.79,10.08,4.95,9.25,10.18c-0.1,0.62,0.77,0.89,0.96,0.26c1.29-4.18-0.29-9.79-4.91-11.33c-2.65-0.89-5.04-0.79-7.13,0.06 c-5-1.87-10.34-0.8-15.56,0.3c-9.52,2.02-19.18,2.79-28.83,1.27c-14.29-2.25-26.8-10.62-33.28-23.26c2.1,2.41,4.6,4.45,7.22,6.28 c7.86,5.53,16.99,10.02,26.12,13c9.42,3.07,18.81,2.88,28.27,0.23c9.91-2.77,19.74-5.36,27.68,2.95c0.18,0.18,0.45-0.05,0.34-0.26 c-3.02-5.77-11.19-7.17-17.06-6.31c-5.26,0.77-10.27,2.51-15.42,3.73c-6.83,1.62-13.82,0.98-20.57-0.67 c-11.16-2.72-22.76-8.84-31.82-15.91c-1.9-1.48-3.46-3.11-4.83-4.87c0.64,0.55,1.31,1.07,1.97,1.57 c7.68,5.75,17.72,9.26,26.89,11.69c9.73,2.59,19.86,3.4,29.89,2.91c10.03-0.5,27.78-6.13,32.14,7.2c0.33,0.99,1.87,0.58,1.57-0.43 c-2.42-8.16-11.08-10.29-18.66-9.96c-5.51,0.24-10.96,1.45-16.48,1.76c-6.1,0.34-12.25-0.09-18.28-0.95 c-3.25-0.47-6.46-1.14-9.63-1.96c9.63,1.13,19.76,0.04,29.4-0.13c5.35-0.1,10.7-0.17,16.05-0.26c5.11-0.08,19.13-2.3,17.86,6.45 c-0.12,0.83,0.93,1.12,1.25,0.35c3.47-8.41-9.78-8.47-14.3-8.34c-12.3,0.34-24.6,0.63-36.9,0.89c-11.48,0.25-21.82-0.26-31.45-7.2 c-9.09-6.55-13.69-16.41-20.3-25.01c0.06-0.19,0.12-0.39,0.19-0.58c5.64,7,9.34,15.53,16.05,21.63c6.45,5.87,15.74,7.33,24.06,8.31 c11.28,1.34,22.7,1.31,34,0.23c10.56-1.01,26.66-4.63,31.61,8.29c0.3,0.77,1.54,0.46,1.26-0.35c-2.54-7.55-10.35-10.35-17.69-10.57 c-5.57-0.17-11.19,1.03-16.73,1.56c-6.17,0.6-12.37,0.74-18.56,0.62c-11.31-0.22-24.18-0.77-34.18-6.62 c-5.45-3.19-8.86-8.39-12.2-13.66c2.91,3.55,6.09,6.86,9.8,9.55c7.65,5.55,16.55,8.11,25.88,8.99c11.03,1.04,22.12-0.97,33.08-1.88 c9.16-0.76,31.48-2.54,32.87,10.37c0.04,0.37,0.54,0.37,0.57,0c0.81-8.49-10.21-10.71-16.4-11.57c-11.3-1.58-22.84,0.59-34.1,1.58 c-11.61,1.02-23.46,0.49-34.2-4.46c-0.97-0.45-1.91-0.95-2.82-1.48c7.39,3.85,15.97,5.28,24.19,5.68 c11.24,0.54,22.46-1.4,33.6-2.58c8.97-0.95,35.92-4.71,33.76,11.15c-0.05,0.37,0.47,0.54,0.58,0.16 c2.57-8.98-7.57-12.84-14.56-13.5c-12.71-1.2-25.62,1.44-38.23,2.65c-11.45,1.1-23.16,0.93-34.1-2.99 c-6.32-2.27-11.3-6.13-15.63-10.74c0.37,0.16,0.75,0.3,1.12,0.46c9.7,11.89,28.37,13.03,42.36,11.96 c10.13-0.78,20.13-2.74,30.28-3.31c7.45-0.42,29.46-1.02,28.98,10.47c-0.04,0.86,1.31,0.86,1.34,0c0.01-0.38-0.01-0.73-0.04-1.08 c0.2,1,0.32,2.06,0.33,3.17c0,0.37,0.62,0.49,0.68,0.09c0.25-1.76,0.14-3.44-0.25-5.03c0.11,0.21,0.23,0.41,0.34,0.62 c0.01,0.07,0.03,0.13,0.04,0.2c0.03,0.24,0.17,0.4,0.34,0.5c0.02,0.04,0.04,0.07,0.06,0.11c0.21,0.41,0.69,0.24,0.81-0.1 c0.28-0.13,0.48-0.38,0.44-0.73c-2.47-19.59-24.23-23.97-40.56-23.09c-11.69,0.62-23.38,2.16-35.04,3.28 c-10.91,1.05-24.69,4.51-34.66-1.44c-1.54-1.9-3-3.88-4.44-5.88c5.7,4.43,11.67,7.43,19.58,7.4c6-0.02,12.08-1.19,18.02-1.92 c6.39-0.79,12.77-1.57,19.16-2.36c12.47-1.54,25.37-3.96,37.78-0.84c11.87,2.98,21.57,12.91,20.14,25.73 c-0.03,0.27,0.41,0.32,0.46,0.06c1.96-8.76-2.6-16.92-9.44-22.18c-9.23-7.1-22.03-7.19-33.04-6.2c-13.31,1.2-26.59,3.2-39.86,4.83 c-6.62,0.82-13.34,2.02-19.98,0.75c-6.1-1.16-11.09-5.51-15.6-9.58c0.16-0.41,0.32-0.81,0.48-1.22c3.8,7.53,13.22,9.32,21.09,9.72 c12.79,0.65,25.41-2.53,37.86-4.95c12.79-2.48,25.99-3.9,38.61,0.15c11.91,3.82,21.76,14.13,22.32,26.98c0.04,0.96,1.52,0.97,1.5,0 c-0.21-9.43-5.4-17.4-12.75-23.01c-8.73-6.66-20.56-8.19-31.21-7.83c-13.22,0.45-26.1,4.32-39.11,6.33 c-11.53,1.78-31.62,3.77-37.64-9.08c0.15-0.36,0.32-0.73,0.48-1.09c5.4,6.83,14.84,9.39,23.18,9.75 c12.65,0.55,24.97-4.33,37.19-6.8c12.3-2.48,24.84-1.42,36.63,2.79c10.22,3.65,30.66,14.2,24.29,28.01 c-0.35,0.76,0.78,1.43,1.13,0.66c4.36-9.45-3.18-17.37-10.43-22.44c-9.78-6.84-21.54-10.58-33.37-11.57 c-23.43-1.95-49.3,15-70.74,4.07c4.8,1.38,10.9,0.47,15.47-0.27c13.61-2.2,26.89-6.03,40.65-7.3c12.78-1.18,25.4,0.86,37.02,6.3 c11.76,5.51,25.61,15.89,23.29,30.54c-0.06,0.37,0.47,0.54,0.58,0.16c0.07-0.24,0.1-0.48,0.16-0.72c-0.02,0.25,0.34,0.35,0.41,0.09 c0.05-0.19,0.1-0.38,0.15-0.57c0.35,0.16,0.91-0.02,0.97-0.54c0.21-1.68,0.32-3.35,0.34-5c2.02-9.69,2.48-19.9-4.26-27.99 c-4.11-4.93-11.01-8.24-16.46-11.4c-5.86-3.39-12.12-5.95-18.85-6.86c-20.77-2.83-40.52,13.26-60.59,16.23 c3.79-0.9,7.51-2.3,11.01-3.92c7.03-3.26,13.58-7.42,20.83-10.22c6.41-2.48,13.29-3.59,20.13-3.79 c14.02-0.4,28.15,4.29,39.19,12.92c5.62,4.39,9.82,10.13,11.64,17.06c2.05,7.79,0.21,16.39-1.03,24.15 c-0.06,0.4,0.53,0.59,0.63,0.17c3.15-13.23,4.17-26.09-4.89-37.21c-8.4-10.3-22.13-16-34.95-18.02c-13.08-2.05-26.1,0.4-37.95,6.09 c-13.7,6.57-30.34,18.24-45.52,8.89c12.05,4.7,24.35-0.55,35.1-6.38c14.39-7.8,28.59-13.84,45.29-13.53 c13.98,0.26,27.53,6.1,37.09,16.32c11.26,12.03,13.18,29.23,8.63,44.57c-0.11,0.36,0.45,0.51,0.56,0.16 c0.1-0.31,0.18-0.63,0.27-0.94c0.08,0.07,0.16,0.12,0.26,0.15c-0.03,0.16-0.05,0.32-0.08,0.48c-0.17,1.04,1.39,1.5,1.6,0.44 c0.27-1.36,0.51-2.72,0.75-4.09c5.37-11.01,5.3-23.88,0.28-35.13c-6.26-14.01-21.63-22.37-35.64-26.71 c-15.06-4.66-31.58-4.33-46.54,0.47c-15.48,4.96-28.02,16.35-43.98,20.01c12.82-6.76,25.55-13.83,38.66-19.99 c7.39-3.47,15.14-6.18,23.25-7.27c8.13-1.08,16.3,0.26,24.1,2.52c7.37,2.14,14.46,5.3,21.36,8.61c7.46,3.58,13.83,8.2,18.28,15.28 c8.99,14.3,6.49,32.22,1.46,47.41c-0.14,0.41,0.48,0.56,0.64,0.18c5.85-14.43,7.54-30.35,0.93-44.85 c-1.63-3.56-3.81-6.63-6.36-9.32c0.95,0.9,1.88,1.82,2.76,2.8c12.74,14.08,8.31,33.42,4.87,50.1c-0.13,0.64,0.81,0.91,0.98,0.27 c0.01-0.05,0.02-0.1,0.04-0.14c-0.11,0.53-0.23,1.06-0.34,1.59c-0.15,0.72,0.61,1.05,1.08,0.71c-2.07,7.33-6.86,13.6-8.78,21.11 c-1.99,7.81-1.19,16.1,1.34,23.67c-2.75,2.01-5.71,2.17-9.14,1.79c-0.55-0.06-0.75,0.79-0.28,1.03c0.8,0.4,1.65,0.65,2.53,0.76 c-0.74,4.17-2.22,7.77-4.43,10.86c-3.36,0.64-6.61-0.2-9.19-2.48c-2.43-2.14-2.98-5.06-3.43-8.08c-0.06-0.39-0.7-0.38-0.77,0 c-1.38,7.22,5.64,12.36,12.17,12.14c-1.88,2.22-4.16,4.16-6.9,5.82C551.28,478.66,540.66,480.34,531.24,482.91z M551.09,398.87 c-0.46-0.35-0.95-0.66-1.43-0.98c-0.24-0.16-0.47-0.33-0.71-0.48c-0.04-0.03-0.09-0.05-0.13-0.07c-7.19-4.44-15.98-6.41-24.85-6.21 c-9.25,0.21-18.39,2.36-27.47,3.94c-9.24,1.6-18.01,1.99-27.04,0.34c1.55-0.08,3.09-0.2,4.6-0.34c11.32-1.05,22.63-2.13,33.95-3.18 c17.37-1.61,46.24-4.16,52.14,17C557.77,404.83,554.68,401.5,551.09,398.87z M558.66,409.97c-2.69-4.31-9.41-5.65-14.25-6.45 c-9.84-1.62-19.97-0.37-29.76,0.91c-10.55,1.38-21.12,2.93-31.78,1.83c-8.93-0.93-16.33-4.29-23.08-9.61 c15.03,5.64,31.27,7.82,47.3,6.85c10.17-0.61,20-3.71,30.16-4.2c6.91-0.33,14.12,1.79,18.55,6.46c0.21,0.33,0.42,0.65,0.62,0.99 c0.11,0.19,0.28,0.26,0.45,0.26C557.57,407.92,558.17,408.91,558.66,409.97z M513.97,393.03c8.28-1.26,16.88-1.53,24.93,0.77 c-6.62-1.21-13.8-0.73-20.23,0.39c-9.48,1.65-18.63,4.29-28.31,4.71c-8.74,0.38-17.45-0.99-25.83-3.42 c0.65,0.02,1.31,0.02,1.96,0.02C481.51,401.14,498.85,395.33,513.97,393.03z M508.51,397.51c14.05-3,32.57-6.84,43.67,3.8 c-0.9-0.53-1.83-1.01-2.78-1.41c-8.74-3.7-18.83-1.36-27.74,0.29c-21.46,3.98-42.98,1.73-63.39-5.52c0.79,0.19,1.59,0.33,2.41,0.45 c0.01,0,0.01,0.01,0.01,0.01C476.29,401.16,492.37,400.96,508.51,397.51z M560.47,638.53c0.22-0.1,0.39-0.29,0.45-0.6 c0.36-1.71,0.74-3.42,1.11-5.13c12.31-7.97,23.95-17.04,36.09-25.27c12.95-8.78,26.15-17.2,39.48-25.39 c0.31-0.19,0.42-0.48,0.41-0.77c6.9-0.73,13.65-1.17,20.63-0.44c8.22,0.86,16.1,3.48,23.59,6.9c1.06,0.48,2.1,1,3.14,1.52 c-1.81,0.6-3.09,2.11-3.97,3.93c0.1-0.71,0.18-1.43,0.22-2.15c0.01-0.2-0.14-0.32-0.31-0.34c-0.28-0.97-1.08-1.86-1.95-2.12 c-1.66-0.49-3.46,0.51-3.74,2.26c-0.01,0.05,0.02,0.08,0.02,0.12c-3.41,7.7-9.38,12.32-16.23,15.78c0.83-1.41,1.64-2.86,2.13-4.37 c0,0,0-0.01,0-0.01c3.34-0.71,6.65-2.22,8.12-5.47c1.4-3.1,0.15-6.88-2.39-8.94c-0.33-0.27-0.77,0.04-0.72,0.36 c-0.12-0.02-0.25,0.01-0.36,0.12c-0.84,0.79-1.67,1.58-2.5,2.38c-0.2,0.2-0.42,0.39-0.63,0.59c-0.04,0.03-0.08,0.05-0.12,0.08 c-0.08,0.06-0.14,0.12-0.18,0.2c-0.12,0.11-0.24,0.22-0.36,0.34c-4.31,1.12-8.02,3.74-11.01,7.02c-4.38,4.82-6.48,11.49-13.4,13.39 c-0.22,0.06-0.29,0.24-0.27,0.41c-0.09,0.01-0.17,0.02-0.26,0.06c-13.29,5.78-26.77,11.06-40.42,15.92 c-11.81,4.2-24.1,9.34-36.74,9.83C560.36,638.68,560.42,638.61,560.47,638.53z M686.73,592.32c-0.04-0.01-0.08-0.02-0.12-0.03 c-0.02-0.31-0.22-0.56-0.48-0.67c0.01-0.04,0.03-0.07,0.04-0.11c0.07-0.31-0.19-0.54-0.49-0.49c-1.78,0.35-2.07,3.15-1.81,4.55 c0.09,0.5,0.79,0.64,1.13,0.31c0.23,0.32,0.59,0.41,0.91,0.27c-0.67,3.1-1.4,6.09-2.59,9.1c-0.13,0.3-0.25,0.6-0.36,0.9 c-0.37,0.87-0.77,1.73-1.24,2.61c-3.27,6.15-8.3,11.09-13.88,15.16c-0.24,0.18-0.03,0.56,0.24,0.41c6.05-3.36,10.67-8.42,14.2-14.3 c0.1,0.02,0.22-0.02,0.24-0.14c0.03-0.16,0.09-0.31,0.13-0.46c0.02-0.03,0.04-0.06,0.06-0.09c1.18-2.04,2.3-4.39,3.2-6.87 c0.36-0.46,0.71-0.93,1.13-1.37c1.3-1.37,2.91-2.36,4.64-3.08c0.88-0.37,0.29,2.76,0.27,2.82c-0.05,0.28-0.13,0.53-0.24,0.78 c0.08-0.7,0.13-1.4,0.15-2.1c0-0.16-0.12-0.22-0.25-0.21c-0.05-0.28-0.27-0.51-0.61-0.41c-1.62,0.49-2.62,2.43-2.84,4 c-0.11,0.77,0.78,1.19,1.25,0.53c0.26-0.37,0.52-0.73,0.78-1.1c0.04,0.06,0.09,0.12,0.14,0.18c-1.51,4.38-2.92,8.62-5.44,12.71 c-3.37,5.46-8.18,10.28-13.42,13.94c-0.32,0.22-0.03,0.74,0.31,0.53c6.69-4.06,13.31-10.74,17.03-18.4c0.05,0,0.1-0.01,0.15,0 c-0.37,1.22-0.72,2.45-1.07,3.68c-0.34,0.12-0.63,0.41-0.66,0.87c-0.07,0.88-0.19,1.75-0.35,2.59c-0.05,0.19-0.11,0.37-0.16,0.56 c-0.03,0.11-0.02,0.21,0.01,0.3c-1.74,7.87-7.3,14.01-15.04,16.95c-7.79,2.96-16.71,2.78-24.89,3.95 c-16.79,2.4-33.2,7.25-48.72,14.05c-7.93,3.48-15.57,7.59-22.97,12.09c-7.66,4.65-15.19,9.49-23.94,11.86 c-9,2.43-18.62,1-25.33-5.73c-2.44-2.45-4.22-5.46-5.31-8.69c0.15-1.17,0.31-2.34,0.45-3.51c0.09-0.79-1.14-0.94-1.38-0.24 c-0.54-3.27-0.43-6.64,0.38-9.85c0.02-0.07,0.01-0.13,0.01-0.19c12.57-2.06,25.02-5.44,36.91-9.88c5.7,1,11.55-0.3,17.05-1.83 c7.44-2.07,14.77-4.67,22.06-7.21c14.31-4.98,28.39-10.59,42.29-16.63c0.58-0.25,0.52-0.86,0.17-1.22c4.4-0.97,7.13-4.14,9.64-7.75 c3.74-5.38,7.11-9.06,12.56-11.69c0.04,0.08,0.1,0.15,0.22,0.18c2.43,0.68,5.08-1.15,5.61-3.56c0.06-0.27-0.09-0.54-0.32-0.67 c0.21-0.19,0.42-0.38,0.63-0.57c0.08-0.08,0.12-0.16,0.13-0.25c2.24,2.15,2.79,5.31,1.48,8.17c-1.44,3.15-5.44,3.74-8.37,4.65 c-0.62,0.19-0.36,1.06,0.26,0.96c0.17-0.03,0.34-0.06,0.5-0.09c-1.2,1.52-2.12,3.32-3.05,5.05c-5.55,2.61-11.58,4.58-17.25,6.84 c-0.37,0.15-0.23,0.68,0.17,0.6c14.21-2.89,29.96-9.64,35.93-23.78c0.2,0.15,0.5,0.18,0.59-0.18c0.09-0.36,0.27-0.61,0.47-0.92 c0.07-0.11-0.08-0.21-0.17-0.13c-0.19,0.18-0.42,0.32-0.64,0.46c-0.02-0.09-0.08-0.15-0.15-0.2c0.53-0.59,1.32-0.92,2.13-0.76 c1.32,0.26,1.42,1.61,1.5,2.66c0.01,0.14,0.09,0.24,0.18,0.31c-0.15,0.55-0.31,1.09-0.48,1.63c-0.05-1.11-0.11-2.22-0.16-3.33 c-0.03-0.59-0.6-0.9-1.12-0.64c-0.04,0.02-0.07,0.05-0.11,0.07c-0.09,0-0.18,0.03-0.24,0.1c-0.02,0.03-0.04,0.07-0.06,0.1 c-0.39,0.28-0.68,0.63-0.88,1.04c-0.17,0.14-0.25,0.33-0.35,0.61c-0.24,0.7-0.35,1.46-0.52,2.18c-0.09,0.4,0.2,0.92,0.67,0.87 c0.69-0.06,1.38-0.12,2.07-0.18c0.2-0.02,0.38-0.1,0.52-0.24c-3.1,9.46-9.22,17.17-18.78,21.26c-0.27,0.11-0.07,0.56,0.2,0.47 c8.26-2.81,15.44-9.38,18.62-17.56c0.1,0.12,0.32,0.14,0.36-0.06c0.58-2.51,1.05-5.06,2.78-7.08c0.88-1.03,2.24-1.66,3.59-1.81 c0.19,0.09,0.38,0.18,0.57,0.28C687.03,590.93,686.88,591.63,686.73,592.32z"/> <path d="M590.76,583.29c-0.14-0.21-0.28-0.42-0.42-0.61c0-0.1-0.01-0.19-0.01-0.29c-0.01-0.44-0.49-0.73-0.88-0.51 c-0.01,0.01-0.02,0.02-0.03,0.02c-0.06-0.02-0.1-0.06-0.17-0.08c-0.55-0.16-0.92,0.35-0.85,0.85c0.1,0.68,0.65,1.11,1.15,1.55 C590.19,584.75,591.27,584.06,590.76,583.29z"/> <path d="M593.98,577.06c-0.31-0.55-0.96-0.57-1.53-0.72c-0.57-0.15-0.81,0.71-0.24,0.88c0.57,0.18,1.12,0.49,1.68,0.19 C594.01,577.35,594.05,577.18,593.98,577.06z"/> <path d="M721.23,610.9c-6.42,3.28-12.13,8.93-17.87,13.28c-5.93,4.5-11.89,8.96-17.87,13.39c-11.65,8.64-23.66,16.94-35,25.98 c-0.63,0.5,0.2,1.56,0.86,1.11c12.37-8.42,24.23-17.72,36.29-26.58c5.99-4.41,11.99-8.81,17.93-13.29 c5.37-4.05,11.91-8.03,16.23-13.18C722.12,611.22,721.71,610.65,721.23,610.9z"/> <path d="M721.19,615.11c-5.59,3.2-10.66,7.55-15.81,11.41c-5.21,3.91-10.42,7.81-15.63,11.72c-10.84,8.15-21.58,16.46-32.54,24.46 c-0.65,0.48,0,1.58,0.64,1.09c10.76-8.25,21.75-16.21,32.62-24.32c5.22-3.89,10.43-7.79,15.65-11.69 c5.2-3.89,10.86-7.55,15.55-12.06C721.99,615.41,721.58,614.88,721.19,615.11z"/> <path d="M722.24,617.35c-9.83,7.61-19.66,15.23-29.5,22.84c-10.21,7.91-20.9,15.48-30.57,24.05c-0.37,0.33,0.12,0.96,0.52,0.68 c10.31-6.96,19.94-15.1,29.77-22.73c10.25-7.96,20.5-15.91,30.75-23.87C723.92,617.78,722.94,616.82,722.24,617.35z"/> <path d="M723.62,619.47c-8.58,8.25-17.59,16.02-26.94,23.38c-9.72,7.64-20.26,14.08-30.13,21.49c-0.45,0.34-0.07,1.04,0.45,0.77 c10.51-5.54,20.1-13.13,29.47-20.38c9.81-7.58,19.17-15.73,28.2-24.21C725.36,619.86,724.3,618.81,723.62,619.47z"/> </g> </svg>